<svg xmlns="http://www.w3.org/2000/svg" xmlns:xlink="http://www.w3.org/1999/xlink" width="1387.229" height="971" viewBox="0 0 1387.229 971"><defs><style>.a,.d,.f,.i,.j{fill:none;}.a{stroke:#6e7277;stroke-dasharray:10;}.a,.d,.f{stroke-width:4px;}.b{fill:#fff;}.c{fill:#f8f8f8;}.d{stroke:#f8f8f8;}.d,.f{stroke-linecap:round;}.e{fill:#ededed;}.f,.i{stroke:#ededed;}.g{fill:#fcfcfc;}.h{fill:#e2e2e2;}.j{stroke:#e3002b;stroke-width:10px;}.k{filter:url(#e);}.l{filter:url(#c);}.m{filter:url(#a);}</style><filter id="a" x="313.258" y="447" width="964" height="524" filterUnits="userSpaceOnUse"><feOffset dy="5" input="SourceAlpha"/><feGaussianBlur stdDeviation="4" result="b"/><feFlood flood-opacity="0.161"/><feComposite operator="in" in2="b"/><feComposite in="SourceGraphic"/></filter><filter id="c" x="420.723" y="747.465" width="65.071" height="65.071" filterUnits="userSpaceOnUse"><feOffset dy="3" input="SourceAlpha"/><feGaussianBlur stdDeviation="3" result="d"/><feFlood flood-opacity="0.161"/><feComposite operator="in" in2="d"/><feComposite in="SourceGraphic"/></filter><filter id="e" x="420.723" y="747.465" width="65.071" height="65.071" filterUnits="userSpaceOnUse"><feOffset dy="3" input="SourceAlpha"/><feGaussianBlur stdDeviation="3" result="f"/><feFlood flood-opacity="0.161"/><feComposite operator="in" in2="f"/><feComposite in="SourceGraphic"/></filter></defs><g transform="translate(-164.742 -80)"><g transform="translate(286 -321.752)"><path class="a" d="M134.473,1165.164c-78.143-20.3-157.736-40.817-217.764-103.724S-153.609,753.277,95.076,832.171c92.613,42.877,204.107,226.4,551.717,229.269s318.39.174,399.33-43.9,197.526-150.079,215.506-290.875S1191.822,509.48,1118.041,454.36,863.786,366.92,652.333,477.554.952,413.443.952,413.443"/></g><g class="m" transform="matrix(1, 0, 0, 1, 164.74, 80)"><rect class="b" width="940" height="500" rx="10" transform="translate(325.26 454)"/></g><rect class="c" width="135" height="11" rx="5.5" transform="translate(536 565)"/><rect class="c" width="134" height="11" rx="5.5" transform="translate(689 565)"/><rect class="c" width="134" height="11" rx="5.5" transform="translate(841 565)"/><g transform="translate(1175.912 559)"><circle class="c" cx="11.5" cy="11.5" r="11.5" transform="translate(180.088)"/><line class="d" x1="39.243" transform="translate(120.505 11.5)"/><line class="d" x1="103.126" transform="translate(0 11.184)"/></g><g transform="translate(1020.182 615)"><path class="c" d="M179.588,605.123,162.513,611.6a53.782,53.782,0,0,0,11.724,17.84l12.746-13.091A35.384,35.384,0,0,1,179.588,605.123Z" transform="translate(-158.674 -537.904)"/><path class="e" d="M172.945,547.522a35.231,35.231,0,0,1,5.369-18.784l-15.226-10.09a53.834,53.834,0,0,0-5.259,47.039l17.078-6.482A35.5,35.5,0,0,1,172.945,547.522Z" transform="translate(-154.678 -493.797)"/><path class="e" d="M227.029,467.927V486.2a35.47,35.47,0,1,1-25.008,61.534l-12.746,13.09a53.734,53.734,0,1,0,37.753-92.892Z" transform="translate(-172.325 -467.927)"/><path class="c" d="M189.258,501.253a35.882,35.882,0,0,1,3.948-4.683A35.22,35.22,0,0,1,217.318,486.2V467.927a53.673,53.673,0,0,0-43.284,23.238Z" transform="translate(-164.551 -467.927)"/></g><g transform="translate(1145.859 615)"><g transform="translate(0 0)"><path class="c" d="M556.945,609.281l7.091,15.926A53.741,53.741,0,0,0,595.4,577.592H577.952a36.372,36.372,0,0,1-21.007,31.689Z" transform="translate(-487.955 -522.607)"/><path class="e" d="M481.56,640.295l-8.784,15.064a53.822,53.822,0,0,0,46.023,2.823l-7.1-15.941a36.481,36.481,0,0,1-30.141-1.945Z" transform="translate(-445.024 -554.588)"/><path class="e" d="M522.854,482.816q.455-.011.912-.011a36.286,36.286,0,0,1,36.267,35.035H577.48a53.73,53.73,0,0,0-53.715-52.475c-.654,0-1.3.016-1.953.039Z" transform="translate(-470.036 -465.365)"/><path class="c" d="M450.5,550a36.588,36.588,0,0,1-6.3-5.048,36.292,36.292,0,0,1,22.243-61.792L465.4,465.744a53.734,53.734,0,0,0-23.687,99.318Z" transform="translate(-416.134 -465.558)"/></g></g><g transform="translate(1271.539 615)"><path class="e" d="M735.729,492.825l-6.481-17.076a53.807,53.807,0,0,0-17.841,11.724L724.5,500.219A35.388,35.388,0,0,1,735.729,492.825Z" transform="translate(-695.488 -471.91)"/><path class="c" d="M769.682,486.181a35.233,35.233,0,0,1,18.784,5.369l10.089-15.226a53.83,53.83,0,0,0-47.039-5.259L758,488.143A35.514,35.514,0,0,1,769.682,486.181Z" transform="translate(-715.946 -467.914)"/><path class="c" d="M786.375,540.266H768.107a35.469,35.469,0,1,1-61.534-25.008l-13.089-12.745a53.734,53.734,0,1,0,92.892,37.753Z" transform="translate(-678.915 -485.561)"/><path class="e" d="M830.225,502.5a35.923,35.923,0,0,1,4.683,3.948,35.222,35.222,0,0,1,10.375,24.112h18.268a53.673,53.673,0,0,0-23.238-43.284Z" transform="translate(-756.091 -477.787)"/></g><line class="f" x1="103.126" transform="translate(1020.182 765.473)"/><line class="f" x1="317.953" transform="translate(1020.182 783.726)"/><line class="f" x1="140.544" transform="translate(1020.182 801.979)"/><path class="f" d="M82.342,0H0" transform="translate(1020.182 820.23)"/><rect class="c" width="136.508" height="85.758" rx="10" transform="translate(536.895 922.5)"/><rect class="c" width="179.402" height="46.138" rx="10" transform="translate(1020.174 962.12)"/><rect class="c" width="179.402" height="46.138" rx="10" transform="translate(1020.174 902.561)"/><rect class="c" width="163.827" height="165.258" rx="10" transform="translate(1215.174 843)"/><rect class="c" width="179.402" height="46.138" rx="10" transform="translate(1020.182 843)"/><g transform="translate(536 615)"><g transform="translate(5.037 26.951)"><path class="g" d="M554.309,515.141H504.755L456.9,480.189l-47.435,37.449-49.1-17.892-46.6,70.737h-49.1l-48.228,35.68-47.019-54.509-47.851,18.308V661.4H554.622Z" transform="translate(-121.122 -478.62)"/><path class="h" d="M217.735,607.417l-48.711-54.357-47.031,17.993-.892-2.331L169.769,550.1l48.341,53.933,46.123-34.874h48.839L362.5,498.672l46.717,17.481,47.633-37.606,48.289,35.273h49.147v2.5H504.327l-47.416-34.634-47.238,37.294L363.5,501.694l-49.085,69.961H265.057L221.4,604.648Z" transform="translate(-121.101 -478.547)"/></g><line class="i" y2="210" transform="translate(5.037)"/><line class="i" y2="210" transform="translate(439.037)"/><line class="i" y2="210" transform="translate(390.037)"/><line class="i" y2="210" transform="translate(342.037)"/><line class="i" y2="210" transform="translate(53.037)"/><line class="i" y2="210" transform="translate(101.037)"/><line class="i" y2="210" transform="translate(150.037)"/><line class="i" y2="210" transform="translate(198.037)"/><line class="i" y2="210" transform="translate(246.037)"/><line class="i" y2="210" transform="translate(294.037)"/><g transform="translate(0 23.5)"><path class="e" d="M126.567,573.886a5.3,5.3,0,1,1-5.3-5.3A5.3,5.3,0,0,1,126.567,573.886Z" transform="translate(-115.971 -478.596)"/><path class="e" d="M176.668,554.716a5.3,5.3,0,1,1-5.3-5.3A5.3,5.3,0,0,1,176.668,554.716Z" transform="translate(-118.638 -477.576)"/><path class="e" d="M225.9,611.789a5.3,5.3,0,1,1-5.3-5.3A5.3,5.3,0,0,1,225.9,611.789Z" transform="translate(-119.258 -482.613)"/><path class="e" d="M276.4,574.43a5.3,5.3,0,1,1-5.3-5.3A5.3,5.3,0,0,1,276.4,574.43Z" transform="translate(-120.946 -479.625)"/><path class="e" d="M327.8,574.43a5.3,5.3,0,1,1-5.3-5.3A5.3,5.3,0,0,1,327.8,574.43Z" transform="translate(-124.682 -479.625)"/><path class="e" d="M376.6,500.367a5.3,5.3,0,1,1-5.3-5.3A5.3,5.3,0,0,1,376.6,500.367Z" transform="translate(-124.279 -474.683)"/><path class="e" d="M428.007,519.1a5.3,5.3,0,1,1-5.3-5.3A5.3,5.3,0,0,1,428.007,519.1Z" transform="translate(-129.015 -477.68)"/><path class="e" d="M477.673,479.891a5.3,5.3,0,1,1-5.3-5.3A5.3,5.3,0,0,1,477.673,479.891Z" transform="translate(-130.659 -474.593)"/><path class="e" d="M527.775,516.487a5.3,5.3,0,1,1-5.3-5.3A5.3,5.3,0,0,1,527.775,516.487Z" transform="translate(-132.325 -477.334)"/><path class="e" d="M579.66,516.7a5.3,5.3,0,1,1-5.3-5.3A5.3,5.3,0,0,1,579.66,516.7Z" transform="translate(-135.087 -477.552)"/></g></g><line class="f" x1="103.126" transform="translate(536 847.5)"/><line class="f" x1="80.5" transform="translate(536 884.5)"/><line class="f" x1="133.492" transform="translate(536 866.5)"/><line class="f" x1="115.5" transform="translate(536 903.5)"/><rect class="c" width="286" height="165.258" rx="10" transform="translate(689 843)"/><rect class="e" width="28" height="91" transform="translate(716 903)"/><rect class="e" width="28" height="67" transform="translate(798 927)"/><rect class="e" width="29" height="44" transform="translate(879 950)"/><rect class="b" width="28" height="114" transform="translate(757 880)"/><rect class="b" width="28" height="114" transform="translate(921 880)"/><rect class="b" width="28" height="84" transform="translate(838 910)"/><g transform="matrix(0.985, -0.174, 0.174, 0.985, 400.391, 783.116)"><path class="a" d="M167.6,114.252S52.468,56.8,2.324,10.6" transform="matrix(0.951, -0.309, 0.309, 0.951, 3.765, 53.478)"/></g><g transform="translate(-32 89)"><g class="l" transform="matrix(1, 0, 0, 1, 196.74, -9)"><line class="j" x2="40" y2="40" transform="translate(433.26 757)"/></g><g class="k" transform="matrix(1, 0, 0, 1, 196.74, -9)"><line class="j" x1="40" y2="40" transform="translate(433.26 757)"/></g></g></g></svg>