<svg xmlns="http://www.w3.org/2000/svg" width="502.916" height="530.645" viewBox="0 0 502.916 530.645"><defs><style>.a,.d,.e,.f,.h{fill:none;}.a,.d,.g{stroke:#fff;}.a,.d,.f{stroke-linecap:round;}.a,.d{stroke-linejoin:round;}.a,.f{stroke-width:3px;}.b{fill:#fff;}.c,.g,.i{fill:#26a1b5;}.c{fill-rule:evenodd;}.d{stroke-width:5px;}.e,.f,.g,.h{stroke-miterlimit:10;}.f,.h{stroke:#26a1b5;}.g{stroke-width:0.75px;}.h{stroke-width:2px;}.j,.k{stroke:none;}.k{fill:#fff;}</style></defs><g transform="translate(-273.5 -2803.856)"><g transform="translate(275 3002.818)"><g transform="translate(0 0)"><path class="a" d="M889.964,550.2" transform="translate(-837.178 -418.708)"/><path class="a" d="M1360.071,642.8v23.887l-10.823,10.823H870.978l-10.823-10.823V642.8Z" transform="translate(-860.155 -347.329)"/><path class="a" d="M1297.7,771.417V486.767l-10.823-10.823H895.515l-10.823,10.823V771.417" transform="translate(-841.241 -475.945)"/><rect class="a" width="366.281" height="250.282" transform="translate(66.817 22.304)"/><path class="a" d="M973.783,642.8v17.355h97.488V642.8" transform="translate(-772.569 -347.329)"/></g></g><g transform="translate(-100.965 252)"><path class="b" d="M57.962,129.941H5a5,5,0,0,1-5-5V5A5,5,0,0,1,5,0H162.036a5,5,0,0,1,5,5V124.942a5,5,0,0,1-5,5H109.075l-25.557,45.4Z" transform="translate(542.964 2609)"/><g transform="translate(593.091 2637.111)"><g transform="translate(0 0)"><path class="c" d="M936.322,125.733a25.047,25.047,0,0,0-18.782,24.254V166.68a2.785,2.785,0,0,1-2.78,2.785,5.572,5.572,0,0,0-5.568,5.566v4.178a1.387,1.387,0,0,0,1.394,1.388h63.993a1.4,1.4,0,0,0,1.4-1.388V175.03a5.575,5.575,0,0,0-5.568-5.566,2.776,2.776,0,0,1-2.78-2.785V149.986a25.051,25.051,0,0,0-18.782-24.254v-2.874a6.261,6.261,0,1,0-12.522,0Zm-3.478,58.936h19.478a9.739,9.739,0,0,1-19.478,0Z" transform="translate(-909.192 -116.596)"/></g></g></g><g transform="translate(-367.796 2731.752)"><line class="d" y1="13.494" transform="translate(892.917 74.604)"/><line class="d" x1="6.278" y1="10.873" transform="translate(863.54 82.177)"/><line class="d" y1="10.873" x2="6.278" transform="translate(916.015 82.177)"/><line class="d" x1="8.87" y1="5.121" transform="translate(843.796 100.772)"/><line class="d" y1="5.121" x2="8.87" transform="translate(933.167 100.772)"/></g><g transform="translate(-533.096 2555.315)"><g transform="translate(925.096 505.685)"><g class="e" transform="translate(-925.096 -505.685)"><path class="j" d="M1191.075,532.828V510.116a4.431,4.431,0,0,0-4.43-4.43H929.527a4.431,4.431,0,0,0-4.431,4.43v22.712Z"/><path class="k" d="M 1188.074951171875 529.8280029296875 L 1188.074951171875 510.115478515625 C 1188.074951171875 509.3267517089844 1187.433227539063 508.6850280761719 1186.64453125 508.6850280761719 L 929.5265502929688 508.6850280761719 C 928.73779296875 508.6850280761719 928.0960083007813 509.3267517089844 928.0960083007813 510.115478515625 L 928.0960083007813 529.8280029296875 L 1188.074951171875 529.8280029296875 M 1191.074951171875 532.8280029296875 L 925.0960083007813 532.8280029296875 L 925.0960083007813 510.115478515625 C 925.0960083007813 507.6690368652344 927.0800170898438 505.6850280761719 929.5265502929688 505.6850280761719 L 1186.64453125 505.6850280761719 C 1189.0908203125 505.6850280761719 1191.074951171875 507.6690368652344 1191.074951171875 510.115478515625 L 1191.074951171875 532.8280029296875 Z"/></g><g transform="translate(19.842 11.098)"><circle class="b" cx="2.474" cy="2.474" r="2.474"/><circle class="b" cx="2.474" cy="2.474" r="2.474" transform="translate(11.578)"/><circle class="b" cx="2.474" cy="2.474" r="2.474" transform="translate(23.157)"/></g><path class="b" d="M925.1,521.24V671.765a4.431,4.431,0,0,0,4.431,4.431h257.118a4.431,4.431,0,0,0,4.43-4.431V521.24Z" transform="translate(-925.096 -494.097)"/><line class="f" x2="65.937" transform="translate(21.331 41.331)"/><line class="f" x2="65.937" transform="translate(21.331 53.331)"/><line class="f" x2="65.937" transform="translate(21.331 65.332)"/><line class="f" x2="40.732" transform="translate(21.331 77.333)"/><line class="f" x2="65.937" transform="translate(21.331 93.456)"/><line class="f" x2="65.937" transform="translate(21.331 104.411)"/><line class="f" x2="65.937" transform="translate(21.331 115.366)"/><line class="f" x2="53.229" transform="translate(21.331 126.321)"/><line class="f" x2="65.937" transform="translate(21.331 142.902)"/><line class="f" x2="65.937" transform="translate(21.331 153.857)"/><line class="f" x2="65.937" transform="translate(21.331 164.812)"/></g><g transform="translate(1035.888 542.335)"><path class="g" d="M999.876,549.246l-10,3.794a31.508,31.508,0,0,0,6.865,10.447l7.465-7.666A20.743,20.743,0,0,1,999.876,549.246Z" transform="translate(-987.628 -509.883)"/><path class="g" d="M999.286,551.937a20.624,20.624,0,0,1,3.144-11l-8.917-5.908a31.523,31.523,0,0,0-3.08,27.546l10-3.8A20.786,20.786,0,0,1,999.286,551.937Z" transform="translate(-988.588 -520.475)"/><path class="g" d="M1016.386,526.688v10.7a20.772,20.772,0,1,1-14.646,36.035l-7.463,7.666a31.467,31.467,0,1,0,22.109-54.4Z" transform="translate(-984.35 -526.688)"/><path class="g" d="M1000.686,546.2a20.9,20.9,0,0,1,2.312-2.743,20.626,20.626,0,0,1,14.12-6.072v-10.7A31.43,31.43,0,0,0,991.771,540.3Z" transform="translate(-986.217 -526.688)"/></g><g transform="translate(1107.192 542.335)"><path class="g" d="M1052.607,563.7l4.153,9.327a31.473,31.473,0,0,0,18.367-27.885h-10.219A21.3,21.3,0,0,1,1052.607,563.7Z" transform="translate(-1012.2 -512.941)"/><path class="g" d="M1043.911,555.452l-5.144,8.821a31.522,31.522,0,0,0,26.953,1.654l-4.158-9.336a21.365,21.365,0,0,1-17.652-1.139Z" transform="translate(-1022.511 -505.26)"/><path class="g" d="M1047.439,536.907q.267-.005.534-.005a21.249,21.249,0,0,1,21.24,20.517h10.217a31.464,31.464,0,0,0-31.457-30.731c-.382,0-.761.009-1.143.023Z" transform="translate(-1016.504 -526.688)"/><path class="g" d="M1049.581,576.093a21.493,21.493,0,0,1-3.691-2.956,21.254,21.254,0,0,1,13.026-36.187l-.611-10.2a31.468,31.468,0,0,0-13.871,58.163Z" transform="translate(-1029.451 -526.642)"/></g><line class="h" y2="52.026" transform="translate(1041.442 620.491)"/><g transform="translate(1041.442 621.976)"><rect class="i" width="104.255" height="8.17"/><rect class="i" width="126.842" height="8.17" transform="translate(0 13.629)"/><rect class="i" width="82.007" height="8.17" transform="translate(0 27.257)"/><rect class="i" width="59.082" height="8.17" transform="translate(0 40.886)"/></g></g></g></svg>