<svg xmlns="http://www.w3.org/2000/svg" xmlns:xlink="http://www.w3.org/1999/xlink" width="958" height="579.205" viewBox="0 0 958 579.205"><defs><style>.a{fill:#fff;}.b{fill:#ededed;}.c,.e{fill:none;}.c{stroke:#2d393b;}.d,.j{fill:#939498;}.d,.l{font-size:18px;font-family:Lato-Regular, Lato;}.e{stroke:#939498;stroke-dasharray:3 5;}.f{fill:#3dbeaf;}.g{fill:#007f71;}.h{fill:#ffb500;}.i{fill:#6e7277;}.k{fill:#b2b5b6;}.l{fill:#2d393b;}.m{filter:url(#a);}</style><filter id="a" x="0" y="0" width="958" height="579.205" filterUnits="userSpaceOnUse"><feOffset dy="3" input="SourceAlpha"/><feGaussianBlur stdDeviation="3" result="b"/><feFlood flood-opacity="0.161"/><feComposite operator="in" in2="b"/><feComposite in="SourceGraphic"/></filter></defs><g transform="translate(-481 -3775)"><g class="m" transform="matrix(1, 0, 0, 1, 481, 3775)"><path class="a" d="M7.833,0H932.167A8.051,8.051,0,0,1,940,8.253v544.7a8.051,8.051,0,0,1-7.833,8.253H7.833A8.051,8.051,0,0,1,0,552.952V8.253A8.051,8.051,0,0,1,7.833,0Z" transform="translate(9 6)"/></g><g transform="translate(2.5 14)"><rect class="b" width="135" height="382" transform="translate(711 3818)"/><g transform="translate(527.977 3817.816)"><line class="c" y2="383" transform="translate(48.023 0.184)"/><text class="d" transform="translate(0.023 285.184)"><tspan x="-20.88" y="18">15</tspan></text><text class="d" transform="translate(0.023 195.184)"><tspan x="-20.88" y="18">30</tspan></text><text class="d" transform="translate(0.023 104.184)"><tspan x="-20.88" y="18">45</tspan></text><text class="d" transform="translate(0.023 14.184)"><tspan x="-20.88" y="18">60</tspan></text><text class="d" transform="translate(0.023 375.184)"><tspan x="-10.44" y="18">0</tspan></text><text class="d" transform="translate(58.023 392.184)"><tspan x="-41.859" y="18">O(1) Score</tspan></text><text class="d" transform="translate(193.023 392.184)"><tspan x="-41.859" y="18">O(2) Score</tspan></text><text class="d" transform="translate(328.023 392.184)"><tspan x="-18.288" y="18">First</tspan></text><text class="d" transform="translate(463.023 392.184)"><tspan x="-16.452" y="18">Last</tspan></text><text class="d" transform="translate(599.023 392.184)"><tspan x="-39.375" y="18">Last_NDR</tspan></text><text class="d" transform="translate(734.023 392.184)"><tspan x="-24.84" y="18">Linear</tspan></text><path class="c" d="M-2279.487-7739h8.276" transform="translate(2319.401 8031.446)"/><path class="c" d="M-2279.487-7739h8.276" transform="translate(2319.401 7851.273)"/><path class="c" d="M-2279.487-7739h8.276" transform="translate(2319.401 7941.359)"/><path class="c" d="M-2279.487-7739h8.276" transform="translate(2319.401 7761.186)"/><path class="e" d="M-2279.484-7739h810.358" transform="translate(2327.675 8031.446)"/><path class="e" d="M-2279.484-7739h810.358" transform="translate(2327.675 7851.273)"/><path class="e" d="M-2279.484-7739h810.358" transform="translate(2327.675 7941.359)"/><path class="e" d="M-2279.484-7739h810.358" transform="translate(2327.675 7761.186)"/><path class="e" d="M0,0H382.533" transform="translate(318.049) rotate(90)"/><path class="e" d="M0,0H382.533" transform="translate(183.315) rotate(90)"/><path class="e" d="M0,0H382.533" transform="translate(453.565) rotate(90)"/><path class="e" d="M0,0H382.533" transform="translate(588.299) rotate(90)"/><path class="e" d="M0,0H382.533" transform="translate(723.032) rotate(90)"/><path class="e" d="M0,0H382.533" transform="translate(858.549) rotate(90)"/><rect class="f" width="16" height="258" transform="translate(59.023 125.184)"/><rect class="g" width="15" height="221" transform="translate(79.023 162.184)"/><rect class="h" width="15" height="98" transform="translate(99.023 285.183)"/><rect class="i" width="16" height="27" transform="translate(118.023 356.183)"/><rect class="j" width="15" height="24" transform="translate(138.023 359.183)"/><rect class="k" width="16" height="20" transform="translate(157.023 363.183)"/><rect class="f" width="16" height="250" transform="translate(194.023 133.184)"/><rect class="g" width="15" height="203" transform="translate(214.023 180.184)"/><rect class="h" width="16" height="140" transform="translate(233.023 243.184)"/><rect class="i" width="16" height="33" transform="translate(253.023 350.183)"/><rect class="j" width="16" height="27" transform="translate(272.023 356.183)"/><rect class="k" width="17" height="20" transform="translate(291.023 363.183)"/><rect class="f" width="16" height="328" transform="translate(330.023 55.184)"/><rect class="g" width="16" height="242" transform="translate(349.023 141.184)"/><rect class="h" width="16" height="55" transform="translate(369.023 328.183)"/><rect class="i" width="15" height="43" transform="translate(389.023 340.183)"/><rect class="j" width="16" height="36" transform="translate(408.023 347.183)"/><rect class="k" width="15" height="30" transform="translate(428.023 353.183)"/><rect class="f" width="15" height="265" transform="translate(465.023 118.184)"/><rect class="g" width="16" height="203" transform="translate(484.023 180.184)"/><rect class="h" width="15" height="116" transform="translate(504.023 267.184)"/><rect class="i" width="15" height="19" transform="translate(524.023 364.183)"/><rect class="j" width="16" height="36" transform="translate(543.023 347.183)"/><rect class="k" width="15" height="24" transform="translate(563.023 359.183)"/><rect class="f" width="15" height="297" transform="translate(600.023 86.184)"/><rect class="g" width="16" height="228" transform="translate(619.023 155.184)"/><rect class="h" width="15" height="80" transform="translate(639.023 303.183)"/><rect class="i" width="16" height="27" transform="translate(658.023 356.183)"/><rect class="j" width="16" height="27" transform="translate(678.023 356.183)"/><rect class="k" width="15" height="27" transform="translate(698.023 356.183)"/><rect class="f" width="16" height="284" transform="translate(735.023 99.184)"/><rect class="g" width="15" height="197" transform="translate(755.023 186.184)"/><rect class="h" width="15" height="83" transform="translate(775.023 300.183)"/><rect class="i" width="16" height="19" transform="translate(794.023 364.183)"/><rect class="j" width="15" height="36" transform="translate(814.023 347.183)"/><rect class="k" width="16" height="27" transform="translate(833.023 356.183)"/><line class="c" x1="811" transform="translate(48.023 383.183)"/></g></g><g transform="translate(83 17)"><rect class="f" width="17" height="17" transform="translate(557 4265)"/><text class="l" transform="translate(587 4262)"><tspan x="0" y="18">Paid Search</tspan></text><rect class="g" width="18" height="18" transform="translate(695 4265)"/><text class="l" transform="translate(725 4262)"><tspan x="0" y="18">Organic</tspan></text><rect class="h" width="17" height="17" transform="translate(808 4265)"/><text class="l" transform="translate(839 4262)"><tspan x="0" y="18">Direct</tspan></text><rect class="i" width="18" height="18" transform="translate(907 4265)"/><text class="l" transform="translate(938 4262)"><tspan x="0" y="18">Referral</tspan></text><rect class="k" width="18" height="18" transform="translate(1116 4265)"/><text class="l" transform="translate(1145 4262)"><tspan x="0" y="18">Other</tspan></text><rect class="j" width="17" height="17" transform="translate(1020 4265)"/><text class="l" transform="translate(1051 4262)"><tspan x="0" y="18">Email</tspan></text></g></g></svg>