<svg xmlns="http://www.w3.org/2000/svg" xmlns:xlink="http://www.w3.org/1999/xlink" width="682" height="502" viewBox="0 0 682 502"><defs><style>.a,.l,.m{fill:none;}.b{fill:#b72026;}.c,.h{fill:#fff;}.d{clip-path:url(#g);}.e{fill:#6e7277;}.f{fill:#ffb500;}.g{clip-path:url(#l);}.h{font-size:30px;font-family:Montserrat-ExtraBold, Montserrat;font-weight:800;}.i{fill:#3dbeaf;}.j{clip-path:url(#w);}.k{clip-path:url(#z);}.l{stroke:#6e7277;}.l,.m{stroke-width:3px;}.m{stroke:#707070;}.n{filter:url(#x);}.o{filter:url(#u);}.p{filter:url(#s);}.q{filter:url(#q);}.r{filter:url(#o);}.s{filter:url(#m);}.t{filter:url(#j);}.u{filter:url(#h);}.v{filter:url(#e);}.w{filter:url(#c);}.x{filter:url(#a);}</style><filter id="a" x="32" y="21" width="168" height="76" filterUnits="userSpaceOnUse"><feOffset dy="3" input="SourceAlpha"/><feGaussianBlur stdDeviation="3" result="b"/><feFlood flood-opacity="0.161"/><feComposite operator="in" in2="b"/><feComposite in="SourceGraphic"/></filter><filter id="c" x="32" y="426" width="168" height="76" filterUnits="userSpaceOnUse"><feOffset dy="3" input="SourceAlpha"/><feGaussianBlur stdDeviation="3" result="d"/><feFlood flood-opacity="0.161"/><feComposite operator="in" in2="d"/><feComposite in="SourceGraphic"/></filter><filter id="e" x="0" y="0" width="78" height="78" filterUnits="userSpaceOnUse"><feOffset dy="3" input="SourceAlpha"/><feGaussianBlur stdDeviation="3" result="f"/><feFlood flood-opacity="0.161"/><feComposite operator="in" in2="f"/><feComposite in="SourceGraphic"/></filter><clipPath id="g"><circle class="a" cx="30" cy="30" r="30"/></clipPath><filter id="h" x="33.441" y="145.692" width="165.119" height="80.62" filterUnits="userSpaceOnUse"><feOffset dy="3" input="SourceAlpha"/><feGaussianBlur stdDeviation="3" result="i"/><feFlood flood-opacity="0.161"/><feComposite operator="in" in2="i"/><feComposite in="SourceGraphic"/></filter><filter id="j" x="151" y="129" width="78" height="78" filterUnits="userSpaceOnUse"><feOffset dy="3" input="SourceAlpha"/><feGaussianBlur stdDeviation="3" result="k"/><feFlood flood-opacity="0.161"/><feComposite operator="in" in2="k"/><feComposite in="SourceGraphic"/></filter><clipPath id="l"><circle class="a" cx="30" cy="30" r="30" transform="translate(-0.181 0.129)"/></clipPath><filter id="m" x="38" y="295" width="157" height="76" filterUnits="userSpaceOnUse"><feOffset dy="3" input="SourceAlpha"/><feGaussianBlur stdDeviation="3" result="n"/><feFlood flood-opacity="0.161"/><feComposite operator="in" in2="n"/><feComposite in="SourceGraphic"/></filter><filter id="o" x="282" y="149" width="157" height="77" filterUnits="userSpaceOnUse"><feOffset dy="3" input="SourceAlpha"/><feGaussianBlur stdDeviation="3" result="p"/><feFlood flood-opacity="0.161"/><feComposite operator="in" in2="p"/><feComposite in="SourceGraphic"/></filter><filter id="q" x="525" y="21" width="157" height="76" filterUnits="userSpaceOnUse"><feOffset dy="3" input="SourceAlpha"/><feGaussianBlur stdDeviation="3" result="r"/><feFlood flood-opacity="0.161"/><feComposite operator="in" in2="r"/><feComposite in="SourceGraphic"/></filter><filter id="s" x="525" y="295" width="157" height="76" filterUnits="userSpaceOnUse"><feOffset dy="3" input="SourceAlpha"/><feGaussianBlur stdDeviation="3" result="t"/><feFlood flood-opacity="0.161"/><feComposite operator="in" in2="t"/><feComposite in="SourceGraphic"/></filter><filter id="u" x="151" y="266" width="78" height="78" filterUnits="userSpaceOnUse"><feOffset dy="3" input="SourceAlpha"/><feGaussianBlur stdDeviation="3" result="v"/><feFlood flood-opacity="0.161"/><feComposite operator="in" in2="v"/><feComposite in="SourceGraphic"/></filter><clipPath id="w"><circle class="a" cx="30" cy="30" r="30" transform="translate(-0.181 0.261)"/></clipPath><filter id="x" x="388" y="128" width="78" height="78" filterUnits="userSpaceOnUse"><feOffset dy="3" input="SourceAlpha"/><feGaussianBlur stdDeviation="3" result="y"/><feFlood flood-opacity="0.161"/><feComposite operator="in" in2="y"/><feComposite in="SourceGraphic"/></filter><clipPath id="z"><circle class="a" cx="30" cy="30" r="30" transform="translate(-0.128 0.023)"/></clipPath></defs><g transform="translate(-997 -2002)"><g class="x" transform="matrix(1, 0, 0, 1, 997, 2002)"><rect class="b" width="150" height="58" rx="29" transform="translate(41 27)"/></g><g class="w" transform="matrix(1, 0, 0, 1, 997, 2002)"><rect class="b" width="150" height="58" rx="29" transform="translate(41 432)"/></g><g transform="translate(1006 2008)"><g class="v" transform="matrix(1, 0, 0, 1, -9, -6)"><circle class="c" cx="30" cy="30" r="30" transform="translate(9 6)"/></g><g transform="translate(0 0)"><g class="d"><path class="e" d="M151.362,204.408h51.016c-2.861-11.751-11.028-20.715-21.115-22.758a13.344,13.344,0,1,0-8.828.009C162.367,183.72,154.218,192.675,151.362,204.408Z" transform="translate(-147.07 -143.028)"/></g></g></g><g class="u" transform="matrix(1, 0, 0, 1, 997, 2002)"><path class="f" d="M502.739,218.64,429.18,249.95l73.559,31.31L576.3,249.95Z" transform="translate(-386.74 -66.95)"/></g><g transform="translate(1157.181 2136.871)"><g class="t" transform="matrix(1, 0, 0, 1, -160.18, -134.87)"><circle class="c" cx="30" cy="30" r="30" transform="translate(160 135)"/></g><g transform="translate(0 0)"><g class="g"><path class="e" d="M151.362,204.408h51.016c-2.861-11.751-11.028-20.715-21.115-22.758a13.344,13.344,0,1,0-8.828.009C162.367,183.72,154.218,192.675,151.362,204.408Z" transform="translate(-147.07 -143.028)"/></g></g></g><g transform="translate(1190.28 2112.719)"><ellipse class="f" cx="19.5" cy="19" rx="19.5" ry="19" transform="translate(-0.28 0.282)"/><text class="h" transform="translate(10.721 3.282)"><tspan x="-8.955" y="29">?</tspan></text></g><g class="s" transform="matrix(1, 0, 0, 1, 997, 2002)"><rect class="i" width="139" height="58" rx="5" transform="translate(47 301)"/></g><g class="r" transform="matrix(1, 0, 0, 1, 997, 2002)"><rect class="i" width="139" height="59" rx="5" transform="translate(291 155)"/></g><g class="q" transform="matrix(1, 0, 0, 1, 997, 2002)"><rect class="i" width="139" height="58" rx="5" transform="translate(534 27)"/></g><g class="p" transform="matrix(1, 0, 0, 1, 997, 2002)"><rect class="i" width="139" height="58" rx="5" transform="translate(534 301)"/></g><g transform="translate(1157.181 2273.739)"><g class="o" transform="matrix(1, 0, 0, 1, -160.18, -271.74)"><circle class="c" cx="30" cy="30" r="30" transform="translate(160 272)"/></g><g transform="translate(0 0)"><g class="j"><path class="e" d="M151.362,204.408h51.016c-2.861-11.751-11.028-20.715-21.115-22.758a13.344,13.344,0,1,0-8.828.009C162.367,183.72,154.218,192.675,151.362,204.408Z" transform="translate(-147.07 -143.028)"/></g></g></g><g transform="translate(1394.128 2135.977)"><g class="n" transform="matrix(1, 0, 0, 1, -397.13, -133.98)"><circle class="c" cx="30" cy="30" r="30" transform="translate(397 134)"/></g><g transform="translate(0 0)"><g class="k"><path class="e" d="M151.362,204.408h51.016c-2.861-11.751-11.028-20.715-21.115-22.758a13.344,13.344,0,1,0-8.828.009C162.367,183.72,154.218,192.675,151.362,204.408Z" transform="translate(-147.07 -143.028)"/></g></g></g><g transform="translate(1190.28 2250.48)"><circle class="i" cx="19.5" cy="19.5" r="19.5" transform="translate(-0.28 -0.481)"/><text class="h" transform="translate(9.721 3.52)"><tspan x="-11.055" y="29">X</tspan></text></g><g transform="translate(1427.227 2112.719)"><ellipse class="i" cx="19.5" cy="19" rx="19.5" ry="19" transform="translate(-0.227 0.282)"/><text class="h" transform="translate(9.773 3.282)"><tspan x="-11.055" y="29">X</tspan></text></g><g transform="translate(-0.553 6.25)"><path class="l" d="M-16427.707-10911.666l-9.5,9.5,9.5,9.5" transform="translate(12015.721 -14306.455) rotate(-90)"/><line class="m" y2="36" transform="translate(1113.5 2094.5)"/></g><g transform="translate(-0.553 145.5)"><path class="l" d="M-16427.707-10911.666l-9.5,9.5,9.5,9.5" transform="translate(12015.721 -14306.455) rotate(-90)"/><line class="m" y2="36" transform="translate(1113.5 2094.5)"/></g><path class="l" d="M-16427.707-10911.666l-9.5,9.5,9.5,9.5" transform="translate(-14919.455 -8843.666) rotate(180)"/><line class="m" y2="36" transform="translate(1481.5 2058.555) rotate(-90)"/><path class="l" d="M-16427.707-10911.666l-9.5,9.5,9.5,9.5" transform="translate(-14919.455 -8570.168) rotate(180)"/><line class="m" y2="36" transform="translate(1481.5 2332.052) rotate(-90)"/><g transform="translate(-861 3300.052) rotate(-90)"><path class="l" d="M-16427.707-10911.666l-9.5,9.5,9.5,9.5" transform="translate(12015.721 -14306.455) rotate(-90)"/><line class="m" y2="36" transform="translate(1113.5 2094.5)"/></g><g transform="translate(-0.553 283.815)"><path class="l" d="M-16427.707-10911.666l-9.5,9.5,9.5,9.5" transform="translate(12015.721 -14306.455) rotate(-90)"/><line class="m" y2="36" transform="translate(1113.5 2094.5)"/></g><path class="m" d="M-10611.7-10258v275.352" transform="translate(12094 12316)"/><path class="m" d="M-10612.5-10129.5h-18.119" transform="translate(12094 12316)"/></g></svg>