<svg xmlns="http://www.w3.org/2000/svg" xmlns:xlink="http://www.w3.org/1999/xlink" width="635.476" height="516.5" viewBox="0 0 635.476 516.5"><defs><style>.a,.d,.l,.n,.o,.p,.v,.w{fill:none;}.b{fill:#3dbeaf;}.c{fill:#fff;}.d{stroke:#3dbeaf;}.d,.n,.o,.v,.w{stroke-linecap:round;}.d,.l,.o,.w{stroke-linejoin:round;}.d,.l,.n,.v,.w{stroke-width:2px;}.e{fill:#5b5f64;}.f{fill:#a3a6a7;}.g{fill:#ffe199;}.h{fill:#007f71;}.i{fill:#298b77;}.j{fill:#0f5244;}.k{fill:#ffb500;}.l,.w{stroke:#2d393b;}.m{fill:#2d393b;}.n,.o{stroke:#ffb500;}.n,.p,.v{stroke-miterlimit:10;}.o{stroke-width:5px;}.p{stroke:#222b2d;stroke-width:3px;}.q{fill:#222b2d;}.r{clip-path:url(#k);}.s{fill:#fff0cc;}.t{fill:#ffd366;}.u{fill:#b1e5df;}.v{stroke:#808286;}.x{filter:url(#n);}.y{filter:url(#l);}.z{filter:url(#i);}.aa{filter:url(#g);}.ab{filter:url(#e);}.ac{filter:url(#c);}.ad{filter:url(#a);}</style><filter id="a" x="127.06" y="471.977" width="400" height="44.523" filterUnits="userSpaceOnUse"><feOffset dy="3" input="SourceAlpha"/><feGaussianBlur stdDeviation="3" result="b"/><feFlood flood-opacity="0.161"/><feComposite operator="in" in2="b"/><feComposite in="SourceGraphic"/></filter><filter id="c" x="160.261" y="246.198" width="333.595" height="243.78" filterUnits="userSpaceOnUse"><feOffset dy="3" input="SourceAlpha"/><feGaussianBlur stdDeviation="3" result="d"/><feFlood flood-opacity="0.161"/><feComposite operator="in" in2="d"/><feComposite in="SourceGraphic"/></filter><filter id="e" x="88.962" y="0" width="127.197" height="127.197" filterUnits="userSpaceOnUse"><feOffset dy="3" input="SourceAlpha"/><feGaussianBlur stdDeviation="3" result="f"/><feFlood flood-opacity="0.161"/><feComposite operator="in" in2="f"/><feComposite in="SourceGraphic"/></filter><filter id="g" x="0" y="173.723" width="122.949" height="122.949" filterUnits="userSpaceOnUse"><feOffset dy="3" input="SourceAlpha"/><feGaussianBlur stdDeviation="3" result="h"/><feFlood flood-opacity="0.161"/><feComposite operator="in" in2="h"/><feComposite in="SourceGraphic"/></filter><filter id="i" x="423.94" y="278.672" width="211.535" height="150.501" filterUnits="userSpaceOnUse"><feOffset dy="3" input="SourceAlpha"/><feGaussianBlur stdDeviation="3" result="j"/><feFlood flood-opacity="0.161"/><feComposite operator="in" in2="j"/><feComposite in="SourceGraphic"/></filter><clipPath id="k"><rect class="a" width="66.513" height="55.999" rx="2.118"/></clipPath><filter id="l" x="511.361" y="108.996" width="124.114" height="124.114" filterUnits="userSpaceOnUse"><feOffset dy="3" input="SourceAlpha"/><feGaussianBlur stdDeviation="3" result="m"/><feFlood flood-opacity="0.161"/><feComposite operator="in" in2="m"/><feComposite in="SourceGraphic"/></filter><filter id="n" x="61.366" y="320.173" width="171.388" height="144.524" filterUnits="userSpaceOnUse"><feOffset dy="3" input="SourceAlpha"/><feGaussianBlur stdDeviation="3" result="o"/><feFlood flood-opacity="0.161"/><feComposite operator="in" in2="o"/><feComposite in="SourceGraphic"/></filter></defs><g transform="translate(-1030.44 -2656.5)"><g transform="translate(1289.712 2735.697)"><g transform="translate(0 0)"><path class="b" d="M47.045,105.168H5a5,5,0,0,1-5-5V5A5,5,0,0,1,5,0H130.577a5,5,0,0,1,5,5v95.168a5,5,0,0,1-5,5H88.532L67.789,141.913Z" transform="translate(0 0)"/></g><g transform="translate(17.765 25.343)"><rect class="c" width="100.051" height="53.127" rx="0.689" transform="translate(0 0)"/><path class="d" d="M-566.592,864.183V836.032a6.274,6.274,0,0,1-6.275-6.274c0-.038.005-.075.007-.113h-75.176c0,.038.007.075.007.113a6.274,6.274,0,0,1-6.275,6.274v28.151a6.275,6.275,0,0,1,6.275,6.274h75.162A6.275,6.275,0,0,1-566.592,864.183Z" transform="translate(660.474 -823.487)"/><g transform="translate(43.701 14.115)"><path class="d" d="M-608.081,841.7s-9.674-4.082-11.166,1.911c-1.737,6.977,12.446,4.261,11.769,10.063-.634,5.429-8.048,6.489-12.625,2.414" transform="translate(620.103 -836.56)"/><line class="d" y2="24.897" transform="translate(6.325)"/></g></g></g><g transform="translate(1166.5 2908.697)"><g transform="translate(0 0)"><g class="ad" transform="matrix(1, 0, 0, 1, -136.06, -252.2)"><path class="e" d="M495.783,496.858V515.11l-8.27,8.27H122.053l-8.27-8.27V496.858Z" transform="translate(22.28 -18.88)"/></g><g class="ac" transform="matrix(1, 0, 0, 1, -136.06, -252.2)"><path class="f" d="M445.645,330H146.59l-8.27,8.269v217.51h315.6V338.271Zm-9.584,208.291H156.175V347.044H436.061Z" transform="translate(30.94 -77.8)"/></g><rect class="c" width="279.886" height="193.682" transform="translate(51.057 16.049)"/></g><rect class="g" width="124.478" height="99.751" rx="1" transform="translate(128.761 92.095)"/><g transform="translate(105.687 35.288)"><g transform="translate(0.154)"><path class="b" d="M216.352,418.829H192l40.4-62.749h12.626Z" transform="translate(-192.002 -356.079)"/><path class="h" d="M234.348,418.829H210l28.68-62.749H251.3Z" transform="translate(-185.647 -356.079)"/><path class="b" d="M252.344,418.829H227.993l16.955-62.749h12.626Z" transform="translate(-179.292 -356.079)"/><path class="h" d="M270.34,418.829H245.989l5.231-62.749h12.626Z" transform="translate(-172.937 -356.079)"/><path class="b" d="M290.031,418.829H265.68l-6.494-62.749h12.626Z" transform="translate(-168.276 -356.079)"/><path class="b" d="M332.142,418.829H307.791l-29.943-62.749h12.626Z" transform="translate(-161.686 -356.079)"/><path class="h" d="M311.087,418.829H286.736l-18.218-62.749h12.626Z" transform="translate(-164.981 -356.079)"/></g><path class="i" d="M191.888,402.453a12.244,12.244,0,0,0,24.488,0Z" transform="translate(-191.888 -339.703)"/><path class="i" d="M227.993,402.456a12.175,12.175,0,0,0,24.351,0Z" transform="translate(-179.138 -339.702)"/><path class="i" d="M263.985,402.456a12.176,12.176,0,0,0,24.351,0Z" transform="translate(-166.428 -339.702)"/><path class="i" d="M299.989,402.456a12.175,12.175,0,0,0,24.351,0Z" transform="translate(-153.714 -339.702)"/><path class="j" d="M209.985,402.453a12.184,12.184,0,1,0,24.367,0Z" transform="translate(-185.497 -339.703)"/><path class="j" d="M245.983,402.453a12.184,12.184,0,1,0,24.367,0Z" transform="translate(-172.785 -339.703)"/><path class="j" d="M281.981,402.453a12.184,12.184,0,1,0,24.367,0Z" transform="translate(-160.073 -339.703)"/></g><rect class="k" width="35.891" height="49.876" transform="translate(173.055 141.971)"/></g><g transform="translate(1128.402 2662.5)"><g class="ab" transform="matrix(1, 0, 0, 1, -97.96, -6)"><rect class="c" width="109.197" height="109.197" rx="5" transform="translate(97.96 6)"/></g><g transform="translate(29.184 14.632)"><g transform="translate(0 0)"><line class="l" x1="3.566" y1="9.759" transform="translate(34.421 49.189)"/><circle class="b" cx="25.415" cy="25.415" r="25.415"/><path class="m" d="M668.973,262.363h0a5.073,5.073,0,0,1-6.487-3.015l-4.081-11.326a5.072,5.072,0,0,1,3.015-6.487h0a5.072,5.072,0,0,1,6.486,3.015l4.082,11.326A5.072,5.072,0,0,1,668.973,262.363Z" transform="translate(-623.399 -182.737)"/></g><circle class="c" cx="18.757" cy="18.757" r="18.757" transform="translate(6.658 6.658)"/><path class="n" d="M648.846,189.678a14.632,14.632,0,0,1,11.46,10.784" transform="translate(-622.319 -176.719)"/></g></g><g transform="translate(1326.326 2700.071)"><line class="o" y1="8.564" transform="translate(31.174 0)"/><line class="o" x1="3.984" y1="6.901" transform="translate(12.53 4.806)"/><line class="o" y1="6.901" x2="3.984" transform="translate(45.834 4.806)"/><line class="o" x1="5.629" y1="3.25" transform="translate(0 16.607)"/><line class="o" y1="3.25" x2="5.629" transform="translate(56.72 16.607)"/></g><g transform="translate(1039.44 2836.223)"><g class="aa" transform="matrix(1, 0, 0, 1, -9, -179.72)"><rect class="c" width="104.949" height="104.949" rx="5" transform="translate(9 179.72)"/></g><g transform="translate(22.047 16.342)"><path class="k" d="M583.147,61.427a.858.858,0,0,0-.848-.73H539.293a.858.858,0,0,0-.848.73l-8.324,55.49a.858.858,0,0,0,.848.985h59.653a.859.859,0,0,0,.848-.985Z" transform="translate(-530.112 -45.124)"/><g transform="translate(13.568 0)"><path class="p" d="M549.315,62.418V56.754a14.261,14.261,0,0,1,14.219-14.22h0a14.261,14.261,0,0,1,14.219,14.22v5.664" transform="translate(-546.419 -42.534)"/><ellipse class="q" cx="2.896" cy="2.896" rx="2.896" ry="2.896" transform="translate(0 18.001)"/><ellipse class="q" cx="2.896" cy="2.896" rx="2.896" ry="2.896" transform="translate(28.439 18.001)"/></g><path class="c" d="M575.378,86.925a.633.633,0,0,0-.511-.43l-7.116-1.034-3.182-6.448a.659.659,0,0,0-1.135,0l-3.183,6.448-7.115,1.034a.633.633,0,0,0-.351,1.079l5.149,5.018-1.216,7.087a.633.633,0,0,0,.918.667L564,97l6.364,3.346a.633.633,0,0,0,.919-.667l-1.216-7.087,5.149-5.018A.633.633,0,0,0,575.378,86.925Z" transform="translate(-533.318 -47.69)"/></g></g><g transform="translate(1463.381 2941.172)"><g transform="translate(0 0)"><g class="z" transform="matrix(1, 0, 0, 1, -432.94, -284.67)"><rect class="c" width="193.535" height="132.501" rx="3.005" transform="translate(432.94 284.67)"/></g><path class="b" d="M325.816,200.856V189.7a3.223,3.223,0,0,0-3.224-3.224H135.5a3.223,3.223,0,0,0-3.224,3.224v11.158Z" transform="translate(-132.281 -186.474)"/><ellipse class="c" cx="1.8" cy="1.8" rx="1.8" ry="1.8" transform="translate(14.085 6.037)"/><ellipse class="c" cx="1.8" cy="1.8" rx="1.8" ry="1.8" transform="translate(22.509 6.037)"/><ellipse class="c" cx="1.8" cy="1.8" rx="1.8" ry="1.8" transform="translate(30.934 6.037)"/></g><g transform="translate(112.948 26.709)"><rect class="b" width="66.513" height="32.944" rx="2.512"/><path class="c" d="M276.225,227.631l-11.513,6.9a.43.43,0,0,1-.651-.368l-.073-13.864a.43.43,0,0,1,.652-.371l11.586,6.968a.434.434,0,0,1,.208.37A.429.429,0,0,1,276.225,227.631Z" transform="translate(-235.643 -210.753)"/></g><g transform="translate(112.948 66.098)"><g class="r"><rect class="s" width="66.513" height="32.559" transform="translate(0 -1.806)"/><path class="t" d="M320.592,265.842s-4.727-13.265-25.055-13.265-21.272,20.253-58.618,20.253v33.857h83.673Z" transform="translate(-237.613 -247.76)"/><path class="g" d="M223.743,274.315s6.618-10.775,24.109-10.775,19.855,15.03,59.092,15.03v19.944h-83.2Z" transform="translate(-238.572 -246.962)"/><ellipse class="k" cx="18.156" cy="18.156" rx="18.156" ry="18.156" transform="translate(26.495 19.468)"/><rect class="h" width="66.513" height="19.041" transform="translate(0 43.716)"/><rect class="b" width="66.513" height="4.255" transform="translate(0 39.521)"/><rect class="u" width="66.513" height="2.127" transform="translate(0 37.452)"/></g></g><line class="v" x2="90.06" transform="translate(14.085 31.037)"/><line class="v" x2="90.06" transform="translate(14.085 39.769)"/><line class="v" x2="90.06" transform="translate(14.085 48.501)"/><line class="v" x2="55.634" transform="translate(14.085 57.233)"/><line class="v" x2="90.06" transform="translate(14.085 68.965)"/><line class="v" x2="90.06" transform="translate(14.085 76.936)"/><line class="v" x2="90.06" transform="translate(14.085 84.907)"/><line class="v" x2="72.702" transform="translate(14.085 92.879)"/></g><g transform="translate(1550.802 2771.496)"><g class="y" transform="matrix(1, 0, 0, 1, -520.36, -115)"><rect class="c" width="106.114" height="106.114" rx="5" transform="translate(520.36 115)"/></g><g transform="translate(13.942 25.147)"><path class="k" d="M555.929,211.848h60.718L609,243.913H563.613Z" transform="translate(-538.417 -202.67)"/><ellipse class="b" cx="4.443" cy="4.443" rx="4.443" ry="4.443" transform="translate(31.092 47.624)"/><ellipse class="b" cx="4.443" cy="4.443" rx="4.443" ry="4.443" transform="translate(55.573 47.624)"/><path class="w" d="M542.272,204.69h14.446l11.62,47.624h43.982" transform="translate(-542.272 -204.69)"/></g></g><g transform="translate(1100.807 2982.673)"><g class="x" transform="matrix(1, 0, 0, 1, -70.37, -326.17)"><rect class="c" width="153.388" height="126.524" rx="5" transform="translate(70.37 326.17)"/></g><rect class="b" width="15.422" height="69.671" transform="translate(14.458 45.937)"/><rect class="b" width="14.458" height="51.296" transform="translate(58.795 64.312)"/><rect class="b" width="15.422" height="33.687" transform="translate(102.168 81.921)"/><rect class="k" width="15.422" height="87.28" transform="translate(36.626 28.328)"/><path class="h" d="M0,0H15.422V87.28H0Z" transform="translate(124.336 28.328)"/><path class="h" d="M0,0H15.422V64.312H0Z" transform="translate(79.999 51.296)"/></g></g></svg>