<svg xmlns="http://www.w3.org/2000/svg" xmlns:xlink="http://www.w3.org/1999/xlink" width="682.286" height="579.545" viewBox="0 0 682.286 579.545"><defs><style>.a{fill:#3dbeaf;}.b{fill:#83cfcd;}.c{fill:#e2e2e2;}.d,.j,.k,.l,.s{fill:none;}.d{stroke:#ededed;}.e{fill:#ededed;}.f{fill:#27a193;}.g{fill:#279a8c;}.h{fill:#138477;}.i{fill:#f8f8f8;}.j{stroke:#b2b5b6;stroke-width:2px;}.k{stroke:#fff;}.k,.l,.s{stroke-linecap:round;}.k,.s{stroke-linejoin:round;}.k,.l{stroke-width:3px;}.l{stroke:#3dbeaf;}.m{fill:#34afc2;}.m,.o,.p{font-size:12px;font-family:CourierNewPS-BoldMT, Courier New;font-weight:700;}.n{fill:#6e7277;}.o{fill:#b2b5b6;}.p{fill:#007f71;}.q{fill:#ffb500;}.r{fill:#fff;fill-rule:evenodd;}.s{stroke:#ffb500;stroke-width:5px;}.t{filter:url(#c);}.u{filter:url(#a);}</style><filter id="a" x="315.919" y="69.481" width="366.368" height="395.717" filterUnits="userSpaceOnUse"><feOffset dy="3" input="SourceAlpha"/><feGaussianBlur stdDeviation="3" result="b"/><feFlood flood-opacity="0.161"/><feComposite operator="in" in2="b"/><feComposite in="SourceGraphic"/></filter><filter id="c" x="0" y="135.231" width="366.368" height="444.313" filterUnits="userSpaceOnUse"><feOffset dy="3" input="SourceAlpha"/><feGaussianBlur stdDeviation="3" result="d"/><feFlood flood-opacity="0.161"/><feComposite operator="in" in2="d"/><feComposite in="SourceGraphic"/></filter></defs><g transform="translate(-996.081 -1269.962)"><g class="u" transform="matrix(1, 0, 0, 1, 996.08, 1269.96)"><rect class="a" width="348.368" height="377.717" rx="10" transform="translate(324.92 75.48)"/></g><g transform="translate(1346.919 1386.277)"><g transform="translate(3.372 18.045)"><path class="b" d="M411.3,503.59H378.12l-32.038-23.4-31.759,25.073L281.45,493.282l-31.2,47.36H217.375l-32.29,23.889L153.6,528.036l-32.038,12.258v61.22h289.94Z" transform="translate(-121.269 -479.139)"/><path class="c" d="M185.8,564.828l-32.613-36.393L121.7,540.482l-.6-1.561,32.585-12.468,32.365,36.109,30.88-23.349h32.7l33.1-47.192L314,503.725l31.891-25.178,32.33,23.616h32.9v1.672h-33.45l-31.746-23.188-31.627,24.969-30.912-11.571-32.864,46.841H217.483l-29.23,22.089Z" transform="translate(-121.101 -478.547)"/></g><line class="d" y2="140.6" transform="translate(3.372)"/><line class="d" y2="140.6" transform="translate(293.945)"/><line class="d" y2="140.6" transform="translate(261.138)"/><line class="d" y2="140.6" transform="translate(229.001)"/><line class="d" y2="140.6" transform="translate(35.509)"/><line class="d" y2="140.6" transform="translate(67.646)"/><line class="d" y2="140.6" transform="translate(100.453)"/><line class="d" y2="140.6" transform="translate(132.59)"/><line class="d" y2="140.6" transform="translate(164.727)"/><line class="d" y2="140.6" transform="translate(196.864)"/><g transform="translate(0 15.734)"><path class="e" d="M123.065,572.135a3.547,3.547,0,1,1-3.547-3.547A3.547,3.547,0,0,1,123.065,572.135Z" transform="translate(-115.971 -508.336)"/><path class="e" d="M173.167,552.966a3.547,3.547,0,1,1-3.547-3.547A3.547,3.547,0,0,1,173.167,552.966Z" transform="translate(-134.314 -501.318)"/><path class="e" d="M222.4,610.038a3.547,3.547,0,1,1-3.547-3.547A3.547,3.547,0,0,1,222.4,610.038Z" transform="translate(-150.999 -523.552)"/><path class="e" d="M272.894,572.68a3.547,3.547,0,1,1-3.547-3.547A3.547,3.547,0,0,1,272.894,572.68Z" transform="translate(-168.817 -509.205)"/><path class="e" d="M324.3,572.68a3.547,3.547,0,1,1-3.547-3.547A3.547,3.547,0,0,1,324.3,572.68Z" transform="translate(-188.308 -509.205)"/><path class="e" d="M373.1,498.616a3.547,3.547,0,1,1-3.547-3.547A3.547,3.547,0,0,1,373.1,498.616Z" transform="translate(-204.163 -481.42)"/><path class="e" d="M424.506,517.35a3.547,3.547,0,1,1-3.547-3.547A3.547,3.547,0,0,1,424.506,517.35Z" transform="translate(-224.324 -489.618)"/><path class="e" d="M474.172,478.14a3.547,3.547,0,1,1-3.547-3.547A3.547,3.547,0,0,1,474.172,478.14Z" transform="translate(-241.838 -474.593)"/><path class="e" d="M524.274,514.736a3.547,3.547,0,1,1-3.547-3.547A3.547,3.547,0,0,1,524.274,514.736Z" transform="translate(-259.511 -488.523)"/><path class="e" d="M576.159,514.954a3.547,3.547,0,1,1-3.547-3.547A3.547,3.547,0,0,1,576.159,514.954Z" transform="translate(-278.507 -488.741)"/></g></g><g transform="translate(1346.919 1556.42)"><rect class="b" width="135.384" height="140.588" transform="translate(0)"/><rect class="a" width="13.611" height="77.415" transform="translate(12.761 51.043)"/><rect class="a" width="12.761" height="56.998" transform="translate(51.894 71.46)"/><rect class="a" width="13.611" height="37.431" transform="translate(90.176 91.026)"/><rect class="f" width="13.611" height="96.981" transform="translate(32.327 31.476)"/><rect class="a" width="13.611" height="96.981" transform="translate(109.742 31.476)"/><rect class="f" width="13.611" height="71.46" transform="translate(70.609 56.998)"/></g><g transform="translate(1504.005 1556.42)"><g transform="translate(0 0)"><path class="g" d="M556.945,619.05l9.277,20.836a70.308,70.308,0,0,0,41.032-62.294H584.427a47.584,47.584,0,0,1-27.482,41.458Z" transform="translate(-466.687 -505.656)"/><path class="h" d="M484.268,640.295,472.776,660a70.415,70.415,0,0,0,60.211,3.693L523.7,642.84a47.729,47.729,0,0,1-39.433-2.545Z" transform="translate(-436.469 -528.167)"/><path class="b" d="M523.175,488.2q.6-.014,1.193-.014a47.473,47.473,0,0,1,47.447,45.835h22.827a70.293,70.293,0,0,0-70.274-68.652c-.856,0-1.706.021-2.555.051Z" transform="translate(-454.074 -465.365)"/><path class="f" d="M461.1,575.971a47.868,47.868,0,0,1-8.242-6.6,47.48,47.48,0,0,1,29.1-80.841l-1.363-22.782a70.3,70.3,0,0,0-30.989,129.935Z" transform="translate(-416.134 -465.501)"/></g></g><g class="t" transform="matrix(1, 0, 0, 1, 996.08, 1269.96)"><rect class="i" width="348.368" height="426.313" rx="10" transform="translate(9 141.23)"/></g><line class="j" x2="348.368" transform="translate(1005.507 1473.386)"/><g transform="translate(1034.005 1431.274)"><g transform="translate(0 0)"><ellipse class="a" cx="11.91" cy="11.91" rx="11.91" ry="11.91"/></g><path class="k" d="M90.946,64.784l5.68,5.177,7.3-9.566" transform="translate(-85.526 -52.855)"/></g><path class="l" d="M-13383.2-11015.8h122.024" transform="translate(14457.019 12452.351)"/><path class="l" d="M-13383.2-11015.8h74.39" transform="translate(14457.019 12465.11)"/><text class="m" transform="translate(1061.229 1497.631)"><tspan x="0" y="10">analytics.track</tspan><tspan class="n" y="10">(</tspan><tspan class="a" y="10">’Order Completed’</tspan><tspan class="n" y="10">, {</tspan></text><text class="o" transform="translate(1034.006 1497.631)"><tspan x="0" y="10">1</tspan><tspan x="0" y="30">2</tspan><tspan x="0" y="50">3</tspan><tspan x="0" y="70">4</tspan><tspan x="0" y="90">5</tspan><tspan x="0" y="110">6</tspan><tspan x="0" y="130">7</tspan><tspan x="0" y="150">8</tspan><tspan x="0" y="170">9</tspan><tspan x="0" y="190">10</tspan><tspan x="0" y="210">11</tspan><tspan x="0" y="230">12</tspan><tspan x="0" y="250">13</tspan><tspan x="0" y="270">14</tspan><tspan x="0" y="290">15</tspan><tspan x="0" y="310">16</tspan></text><text class="p" transform="translate(1076.541 1513.794)"><tspan x="0" y="10">checkout_id: </tspan><tspan class="a" y="10">‘fkdjadkfa’</tspan><tspan class="n" y="10">,</tspan><tspan x="0" y="30">order_id: </tspan><tspan class="a" y="30">‘132852ad5awf5’</tspan><tspan class="n" y="30">,</tspan><tspan x="0" y="50">affilitation: </tspan><tspan class="a" y="50">‘Google Store’</tspan><tspan class="n" y="50">,</tspan><tspan x="0" y="70">total: </tspan><tspan class="q" y="70">30</tspan><tspan class="n" y="70">,</tspan><tspan x="0" y="90">revenue: </tspan><tspan class="q" y="90">25</tspan><tspan class="n" y="90">,</tspan><tspan x="0" y="110">shipping: </tspan><tspan class="q" y="110">3</tspan><tspan class="n" y="110">,</tspan><tspan x="0" y="130">coupon: </tspan><tspan class="a" y="130">‘hasbros’</tspan><tspan class="n" y="130">,</tspan><tspan x="0" y="150">currency: </tspan><tspan class="q" y="150">0</tspan><tspan class="n" y="150">,</tspan><tspan x="0" y="170">products: [</tspan><tspan x="0" y="190"></tspan></text><text class="p" transform="translate(1096.919 1695)"><tspan x="0" y="10">{</tspan><tspan x="0" y="30">product_id:</tspan><tspan class="a" y="30">’4d4a8dtwu1256’</tspan><tspan class="n" y="30">,</tspan><tspan x="0" y="50">sku: </tspan><tspan class="a" y="50">‘45893216-01’</tspan><tspan class="n" y="50">,</tspan><tspan x="0" y="70">name: </tspan><tspan class="a" y="70">‘aswjtkat’</tspan><tspan class="n" y="70">,</tspan><tspan x="0" y="90">},</tspan><tspan x="0" y="110">{</tspan></text><path class="a" d="M36.786,82.468H5a5,5,0,0,1-5-5V5A5,5,0,0,1,5,0H101.01a5,5,0,0,1,5,5V77.467a5,5,0,0,1-5,5H69.225L53.006,111.282Z" transform="translate(1126.473 1307.142)"/><g transform="translate(1158.286 1324.982)"><g transform="translate(0 0)"><path class="r" d="M926.41,122.395a15.9,15.9,0,0,0-11.92,15.393v10.594a1.768,1.768,0,0,1-1.764,1.767,3.536,3.536,0,0,0-3.534,3.532v2.651a.88.88,0,0,0,.885.881H950.69a.888.888,0,0,0,.886-.881v-2.651a3.538,3.538,0,0,0-3.534-3.532,1.762,1.762,0,0,1-1.764-1.767V137.787a15.9,15.9,0,0,0-11.92-15.393v-1.824a3.974,3.974,0,1,0-7.947,0ZM924.2,159.8h12.362a6.181,6.181,0,0,1-12.362,0Z" transform="translate(-909.192 -116.596)"/></g></g><g transform="translate(1148.052 1272.462)"><line class="s" y1="8.564" transform="translate(31.174 0)"/><line class="s" x1="3.984" y1="6.901" transform="translate(12.53 4.806)"/><line class="s" y1="6.901" x2="3.984" transform="translate(45.834 4.806)"/><line class="s" x1="5.629" y1="3.25" transform="translate(0 16.607)"/><line class="s" y1="3.25" x2="5.629" transform="translate(56.72 16.607)"/></g></g></svg>