<svg xmlns="http://www.w3.org/2000/svg" width="359.735" height="52.659" viewBox="0 0 359.735 52.659"><defs><style>.a{fill:#fff;}.b{fill:#ffb500;}</style></defs><g transform="translate(0)"><g transform="translate(0 5.674)"><g transform="translate(266.91)"><path class="a" d="M432.163,9.527V41.533a.809.809,0,0,1-.868.868H430.09a.81.81,0,0,1-.868-.868V38.448a12.61,12.61,0,0,1-9.447,4.339,12.436,12.436,0,1,1,9.061-20.969V9.527a.81.81,0,0,1,.868-.867h1.59A.809.809,0,0,1,432.163,9.527ZM428.836,30.35a9.062,9.062,0,1,0-9.061,9.014A9.082,9.082,0,0,0,428.836,30.35Z" transform="translate(-407.339 -8.66)"/><path class="a" d="M488.045,32.809V46.4a.81.81,0,0,1-.868.868h-1.638a.81.81,0,0,1-.868-.868V32.809a6.676,6.676,0,1,0-13.351,0V46.4a.81.81,0,0,1-.868.868h-1.59a.81.81,0,0,1-.868-.868V32.809a6.7,6.7,0,0,0-13.4,0V46.4a.81.81,0,0,1-.868.868h-1.639a.81.81,0,0,1-.868-.868V24.037a.811.811,0,0,1,.868-.868h1.3a.81.81,0,0,1,.868.868v2.025a8.585,8.585,0,0,1,7.037-3.278,9.933,9.933,0,0,1,8.339,4.483,10.047,10.047,0,0,1,18.413,5.542Z" transform="translate(-422.467 -13.529)"/><path class="a" d="M535.916,24.037v19.57c0,10.266-5.978,13.688-11.28,13.688a11.609,11.609,0,0,1-5.35-1.3.772.772,0,0,1-.434-1.157l.626-1.3a.81.81,0,0,1,1.156-.432,8.086,8.086,0,0,0,3.808.914c4.917,0,8.194-3.567,8.194-10.41a12.417,12.417,0,1,1,.29-16.485V24.037a.81.81,0,0,1,.868-.868h1.253A.81.81,0,0,1,535.916,24.037Zm-3.375,11.183a9.061,9.061,0,1,0-9.014,9.061A9.1,9.1,0,0,0,532.542,35.219Z" transform="translate(-443.091 -13.529)"/></g><path class="a" d="M80.479,28.47V41.148A1.164,1.164,0,0,1,79.225,42.4H75.418a1.142,1.142,0,0,1-1.253-1.253V28.47a4.241,4.241,0,1,0-8.483,0V41.148A1.165,1.165,0,0,1,64.428,42.4H60.571a1.165,1.165,0,0,1-1.253-1.253V9.913A1.165,1.165,0,0,1,60.571,8.66h3.856a1.165,1.165,0,0,1,1.254,1.253v9.109a8.829,8.829,0,0,1,4.242-1.107A10.553,10.553,0,0,1,80.479,28.47Z" transform="translate(-20.45 -8.66)"/><path class="a" d="M118.581,37.2H101.663a6.8,6.8,0,0,0,6.459,4.53,9.824,9.824,0,0,0,5.542-1.928,1.194,1.194,0,0,1,1.736.289l2.121,2.506a1.109,1.109,0,0,1-.193,1.784,15.117,15.117,0,0,1-9.3,3.278A12.664,12.664,0,0,1,95.2,34.978a12.161,12.161,0,0,1,12.388-12.194c6.7,0,11.761,5.061,12.243,13.158C119.883,36.762,119.4,37.2,118.581,37.2Zm-5.543-4.821a5.85,5.85,0,0,0-11.327,0Z" transform="translate(-32.821 -13.529)"/><path class="a" d="M159.165,37.2H142.246a6.8,6.8,0,0,0,6.459,4.53,9.828,9.828,0,0,0,5.543-1.928,1.194,1.194,0,0,1,1.735.289l2.121,2.506a1.109,1.109,0,0,1-.193,1.784,15.114,15.114,0,0,1-9.3,3.278,12.664,12.664,0,0,1-12.822-12.678,12.161,12.161,0,0,1,12.388-12.194c6.7,0,11.761,5.061,12.243,13.158C160.466,36.762,159.984,37.2,159.165,37.2Zm-5.543-4.821a5.85,5.85,0,0,0-11.328,0Z" transform="translate(-46.812 -13.529)"/><path class="a" d="M183.724,42.4h-3.713a1.164,1.164,0,0,1-1.252-1.253V9.915a1.165,1.165,0,0,1,1.252-1.255h3.713a1.165,1.165,0,0,1,1.253,1.255V41.148A1.165,1.165,0,0,1,183.724,42.4Z" transform="translate(-61.627 -8.66)"/><path class="a" d="M216.56,28.47V41.148a1.164,1.164,0,0,1-1.253,1.253H211.5a1.142,1.142,0,0,1-1.254-1.253V28.47a4.242,4.242,0,1,0-8.484,0V41.148a1.164,1.164,0,0,1-1.254,1.253h-3.855a1.164,1.164,0,0,1-1.253-1.253V9.913a1.164,1.164,0,0,1,1.253-1.253h3.855a1.164,1.164,0,0,1,1.254,1.253v9.109A8.835,8.835,0,0,1,206,17.915,10.553,10.553,0,0,1,216.56,28.47Z" transform="translate(-67.363 -8.66)"/><path class="a" d="M256.119,35.219a12.436,12.436,0,1,1-12.436-12.435A12.467,12.467,0,0,1,256.119,35.219Zm-18.558,0a6.1,6.1,0,1,0,12.195,0,6.1,6.1,0,0,0-12.195,0Z" transform="translate(-79.722 -13.529)"/><path class="a" d="M284,47.858A10.451,10.451,0,0,1,273.545,37.4V24.625a1.165,1.165,0,0,1,1.254-1.254h3.76a1.165,1.165,0,0,1,1.253,1.254V37.4a4.169,4.169,0,1,0,8.339,0V24.625a1.165,1.165,0,0,1,1.254-1.254h3.76a1.179,1.179,0,0,1,1.3,1.254V37.4A10.482,10.482,0,0,1,284,47.858Z" transform="translate(-94.304 -13.732)"/><path class="a" d="M324.569,26.11l-1.349,2.314a1.16,1.16,0,0,1-1.736.482,8.27,8.27,0,0,0-3.229-.964c-1.3,0-2.266.626-2.266,1.59,0,1.109,1.3,1.543,3.664,2.459,3.759,1.349,7.037,3.9,7.037,7.952,0,4.1-3.422,7.713-8.82,7.713a15.057,15.057,0,0,1-7.279-2.073,1.162,1.162,0,0,1-.482-1.687l1.35-2.8a1.17,1.17,0,0,1,1.687-.578,12.209,12.209,0,0,0,4.675,1.3c1.639,0,2.41-.916,2.41-1.832,0-1.157-1.205-1.83-4.146-3.035-2.024-.82-6.265-2.555-6.265-7.184,0-4.241,3.567-6.988,8.194-6.988a12.962,12.962,0,0,1,6.073,1.591A1.15,1.15,0,0,1,324.569,26.11Z" transform="translate(-106.81 -13.529)"/><path class="a" d="M361.352,37.2H344.433a6.8,6.8,0,0,0,6.459,4.53,9.828,9.828,0,0,0,5.543-1.928,1.194,1.194,0,0,1,1.735.289l2.121,2.506a1.109,1.109,0,0,1-.193,1.784,15.117,15.117,0,0,1-9.3,3.278,12.663,12.663,0,0,1-12.821-12.678,12.16,12.16,0,0,1,12.387-12.194c6.7,0,11.761,5.061,12.243,13.158C362.654,36.762,362.171,37.2,361.352,37.2Zm-5.543-4.821a5.85,5.85,0,0,0-11.328,0Z" transform="translate(-116.516 -13.529)"/><path class="a" d="M30.276,23.99,25.2,36.8,20.48,24.883a.979.979,0,0,0-.91-.618H17.025a.979.979,0,0,0-.91.618L11.394,36.8,6.319,23.99a.979.979,0,0,0-.91-.619H.98a.979.979,0,0,0-.91,1.339l8.757,22.1a.979.979,0,0,0,.91.618h2.536a.979.979,0,0,0,.91-.618L18.3,33.9l5.116,12.914a.979.979,0,0,0,.91.618H26.86a.978.978,0,0,0,.909-.618l8.757-22.1a.979.979,0,0,0-.91-1.339H31.187A.979.979,0,0,0,30.276,23.99Z" transform="translate(0 -13.732)"/></g><path class="b" d="M400.115,0h-4.43a.978.978,0,0,0-.909.618l-19.724,50.7a.979.979,0,0,0,.91,1.339h4.43a.979.979,0,0,0,.91-.619l19.723-50.7A.979.979,0,0,0,400.115,0Z" transform="translate(-129.274)"/></g></svg>