<svg xmlns="http://www.w3.org/2000/svg" width="546.71" height="342.638" viewBox="0 0 546.71 342.638"><defs><style>.a{fill:#fff;}.b,.c{fill:none;stroke-linecap:round;stroke-linejoin:round;stroke-width:2px;}.b{stroke:#fff;}.c{stroke:#3dbeaf;}</style></defs><g transform="translate(-3249.941 -1582.62)"><path class="a" d="M3442.386,1761.363a36.652,36.652,0,1,0-34.269.036c-24.709,7.445-44.61,30.717-51.481,60.81a1.826,1.826,0,0,0,1.78,2.229h133.8a1.824,1.824,0,0,0,1.779-2.229C3487.109,1792.055,3467.158,1768.767,3442.386,1761.363Z" transform="translate(97.981 100.819)"/><g transform="translate(3384.859 1712.988)"><g transform="translate(41.307)"><line class="b" x1="25.101" y1="25.53" transform="translate(0 39.729)"/><line class="b" y1="25.101" x2="25.53" transform="translate(170.306 41.389)"/><line class="b" y1="35.802" x2="0.303" transform="translate(97.959)"/></g><line class="b" x2="35.802" transform="translate(241.071 137.608)"/><line class="b" x2="35.802" transform="translate(0 137.303)"/></g><circle class="a" cx="52.316" cy="52.316" r="52.316" transform="translate(3470.98 1582.62)"/><g transform="translate(3311.848 1644.516)"><circle class="a" cx="52.316" cy="52.316" r="52.316" transform="translate(318.264)"/><circle class="a" cx="52.316" cy="52.316" r="52.316"/></g><g transform="translate(3249.941 1797.975)"><circle class="a" cx="52.316" cy="52.316" r="52.316" transform="translate(442.078)"/><circle class="a" cx="52.316" cy="52.316" r="52.316"/></g><g transform="translate(3711.911 1823.84)"><path class="c" d="M3525.67,1715.843v-6.1a1.411,1.411,0,0,0-1.408-1.408H3492.12a1.412,1.412,0,0,0-1.409,1.408v24.216a1.412,1.412,0,0,0,1.409,1.408h2.817v9.431l10.208-9.431h1.592" transform="translate(-3490.711 -1708.339)"/><path class="c" d="M3543.272,1715.95h-39.343a1.728,1.728,0,0,0-1.723,1.723v29.642a1.728,1.728,0,0,0,1.723,1.723h23.4l12.494,11.543v-11.543h3.448a1.73,1.73,0,0,0,1.725-1.723v-29.642A1.73,1.73,0,0,0,3543.272,1715.95Z" transform="translate(-3480.15 -1701.347)"/></g><g transform="translate(3269.668 1830.003)"><rect class="c" width="65.178" height="41.186"/><line class="c" x2="28.655" y2="17.969" transform="translate(36.524 23.217)"/><line class="c" y1="17.969" x2="28.218" transform="translate(0 23.217)"/><path class="c" d="M3260.222,1714.1l32.589,20.836L3325.4,1714.1" transform="translate(-3260.222 -1709.206)"/></g><g transform="translate(3663.593 1660.556)"><rect class="c" width="37.669" height="72.553" rx="3.043"/><line class="c" x2="37.669" transform="translate(0 10.9)"/><line class="c" x2="37.669" transform="translate(0 64.095)"/><line class="c" x2="3.676" transform="translate(17.084 5.671)"/></g><g transform="translate(3327.713 1677.562)"><path class="c" d="M3290.474,1632.1h12.607l10.141,41.561H3351.6" transform="translate(-3290.474 -1632.102)"/><path class="c" d="M3298.074,1636.125h49.466l-6.229,26.123h-36.977Z" transform="translate(-3283.492 -1628.406)"/><circle class="c" cx="3.877" cy="3.877" r="3.877" transform="translate(27.134 41.561)"/><circle class="c" cx="3.877" cy="3.877" r="3.877" transform="translate(48.498 41.561)"/></g><g transform="translate(3499.781 1608.904)"><ellipse class="c" cx="23.514" cy="5.209" rx="23.514" ry="5.209"/><path class="c" d="M3380.214,1599.584V1640.7c1.188,2.631,11.209,4.684,23.4,4.684,12.591,0,22.87-2.191,23.485-4.947v-40.849" transform="translate(-3380.097 -1593.319)"/><path class="c" d="M3427.1,1613.5c-.615,2.755-10.894,4.946-23.485,4.946-12.188,0-22.209-2.053-23.4-4.685" transform="translate(-3380.097 -1580.539)"/><path class="c" d="M3427.1,1605.883c-.615,2.755-10.894,4.946-23.485,4.946-12.188,0-22.209-2.055-23.4-4.685" transform="translate(-3380.097 -1587.532)"/></g></g></svg>