<svg xmlns="http://www.w3.org/2000/svg" xmlns:xlink="http://www.w3.org/1999/xlink" width="1920" height="1051" viewBox="0 0 1920 1051"><defs><style>.a,.d,.e,.h,.j,.m,.n{fill:none;}.b{fill:#f7fffd;}.c{clip-path:url(#a);}.d{stroke:#e8e8e8;stroke-miterlimit:10;}.e{stroke:#6e7277;stroke-dasharray:10;}.e,.h,.j{stroke-width:4px;}.f{fill:#fff;}.g{fill:#f8f8f8;}.h{stroke:#f8f8f8;}.h,.j{stroke-linecap:round;}.i{fill:#ededed;}.j,.m{stroke:#ededed;}.k{fill:#fcfcfc;}.l{fill:#e2e2e2;}.n{stroke:#e3002b;stroke-width:10px;}.o{filter:url(#f);}.p{filter:url(#d);}.q{filter:url(#b);}</style><clipPath id="a"><rect class="a" width="1920" height="908"/></clipPath><filter id="b" x="478" y="527" width="964" height="524" filterUnits="userSpaceOnUse"><feOffset dy="5" input="SourceAlpha"/><feGaussianBlur stdDeviation="4" result="c"/><feFlood flood-opacity="0.161"/><feComposite operator="in" in2="c"/><feComposite in="SourceGraphic"/></filter><filter id="d" x="585.465" y="827.464" width="65.071" height="65.071" filterUnits="userSpaceOnUse"><feOffset dy="3" input="SourceAlpha"/><feGaussianBlur stdDeviation="3" result="e"/><feFlood flood-opacity="0.161"/><feComposite operator="in" in2="e"/><feComposite in="SourceGraphic"/></filter><filter id="f" x="585.465" y="827.464" width="65.071" height="65.071" filterUnits="userSpaceOnUse"><feOffset dy="3" input="SourceAlpha"/><feGaussianBlur stdDeviation="3" result="g"/><feFlood flood-opacity="0.161"/><feComposite operator="in" in2="g"/><feComposite in="SourceGraphic"/></filter></defs><rect class="b" width="1920" height="908"/><g class="c"><line class="d" y1="1158.029" x2="451.886" transform="translate(-408.479 -41.178)"/><line class="d" y1="1158.029" x2="451.886" transform="translate(490.098 -41.178)"/><line class="d" y1="1158.029" x2="451.886" transform="translate(699.767 -41.178)"/><line class="d" y1="1158.029" x2="451.886" transform="translate(879.482 -41.178)"/><line class="d" y1="1158.029" x2="451.886" transform="translate(909.435 -41.178)"/><line class="d" y1="1158.029" x2="451.886" transform="translate(924.411 -41.178)"/><line class="d" y1="1158.029" x2="451.886" transform="translate(939.387 -41.178)"/><line class="d" y1="1158.029" x2="451.886" transform="translate(954.364 -41.178)"/><line class="d" y1="1158.029" x2="451.886" transform="translate(969.34 -41.178)"/><line class="d" y1="1158.029" x2="451.886" transform="translate(984.316 -41.178)"/><line class="d" y1="1158.029" x2="451.886" transform="translate(999.292 -41.178)"/><line class="d" y1="1158.029" x2="451.886" transform="translate(1014.269 -41.178)"/><line class="d" y1="1158.029" x2="451.886" transform="translate(1029.245 -41.178)"/><line class="d" y1="1158.029" x2="451.886" transform="translate(-378.527 -41.178)"/><line class="d" y1="1158.029" x2="451.886" transform="translate(-348.574 -41.178)"/><line class="d" y1="1158.029" x2="451.886" transform="translate(-318.622 -41.178)"/><line class="d" y1="1158.029" x2="451.886" transform="translate(-228.764 -41.178)"/><line class="d" y1="1158.029" x2="451.886" transform="translate(-108.953 -41.178)"/><line class="d" y1="1158.029" x2="451.886" transform="translate(10.857 -41.178)"/><line class="d" y1="1158.029" x2="451.886" transform="translate(130.667 -41.178)"/><line class="d" y1="1158.029" x2="451.886" transform="translate(250.478 -41.178)"/><line class="d" y1="1158.029" x2="451.886" transform="translate(370.288 -41.178)"/><line class="d" y1="1158.029" x2="451.886" transform="translate(609.909 -41.178)"/><line class="d" y1="1158.029" x2="451.886" transform="translate(759.672 -41.178)"/><line class="d" y1="1158.029" x2="451.886" transform="translate(819.577 -41.178)"/><line class="d" y1="1158.029" x2="451.886" transform="translate(-438.432 -41.178)"/><line class="d" y1="1158.029" x2="451.886" transform="translate(310.383 -41.178)"/><line class="d" y1="1158.029" x2="451.886" transform="translate(550.004 -41.178)"/><line class="d" y1="1158.029" x2="451.886" transform="translate(789.624 -41.178)"/><line class="d" y1="1158.029" x2="451.886" transform="translate(849.53 -41.178)"/><line class="d" y1="1158.029" x2="451.886" transform="translate(-423.456 -41.178)"/><line class="d" y1="1158.029" x2="451.886" transform="translate(-393.503 -41.178)"/><line class="d" y1="1158.029" x2="451.886" transform="translate(-363.55 -41.178)"/><line class="d" y1="1158.029" x2="451.886" transform="translate(-333.598 -41.178)"/><line class="d" y1="1158.029" x2="451.886" transform="translate(-288.669 -41.178)"/><line class="d" y1="1158.029" x2="451.886" transform="translate(-168.859 -41.178)"/><line class="d" y1="1158.029" x2="451.886" transform="translate(-49.048 -41.178)"/><line class="d" y1="1158.029" x2="451.886" transform="translate(70.762 -41.178)"/><line class="d" y1="1158.029" x2="451.886" transform="translate(190.572 -41.178)"/><line class="d" y1="1158.029" x2="451.886" transform="translate(430.193 -41.178)"/><line class="d" y1="1158.029" x2="451.886" transform="translate(-138.906 -41.178)"/><line class="d" y1="1158.029" x2="451.886" transform="translate(864.506 -41.178)"/><line class="d" y1="1158.029" x2="451.886" transform="translate(-19.096 -41.178)"/><line class="d" y1="1158.029" x2="451.886" transform="translate(100.715 -41.178)"/><line class="d" y1="1158.029" x2="451.886" transform="translate(220.525 -41.178)"/><line class="d" y1="1158.029" x2="451.886" transform="translate(340.335 -41.178)"/><line class="d" y1="1158.029" x2="451.886" transform="translate(460.146 -41.178)"/><line class="d" y1="1158.029" x2="451.886" transform="translate(579.956 -41.178)"/><line class="d" y1="1158.029" x2="451.886" transform="translate(684.79 -41.178)"/><line class="d" y1="1158.029" x2="451.886" transform="translate(744.695 -41.178)"/><line class="d" y1="1158.029" x2="451.886" transform="translate(804.601 -41.178)"/><line class="d" y1="1158.029" x2="451.886" transform="translate(-258.716 -41.178)"/><line class="d" y1="1158.029" x2="451.886" transform="translate(774.648 -41.178)"/><line class="d" y1="1158.029" x2="451.886" transform="translate(894.458 -41.178)"/><line class="d" y1="1158.029" x2="451.886" transform="translate(-198.811 -41.178)"/><line class="d" y1="1158.029" x2="451.886" transform="translate(-79.001 -41.178)"/><line class="d" y1="1158.029" x2="451.886" transform="translate(40.81 -41.178)"/><line class="d" y1="1158.029" x2="451.886" transform="translate(160.62 -41.178)"/><line class="d" y1="1158.029" x2="451.886" transform="translate(280.43 -41.178)"/><line class="d" y1="1158.029" x2="451.886" transform="translate(400.241 -41.178)"/><line class="d" y1="1158.029" x2="451.886" transform="translate(-243.74 -41.178)"/><line class="d" y1="1158.029" x2="451.886" transform="translate(-183.835 -41.178)"/><line class="d" y1="1158.029" x2="451.886" transform="translate(-123.93 -41.178)"/><line class="d" y1="1158.029" x2="451.886" transform="translate(-64.025 -41.178)"/><line class="d" y1="1158.029" x2="451.886" transform="translate(25.833 -41.178)"/><line class="d" y1="1158.029" x2="451.886" transform="translate(145.644 -41.178)"/><line class="d" y1="1158.029" x2="451.886" transform="translate(265.454 -41.178)"/><line class="d" y1="1158.029" x2="451.886" transform="translate(385.264 -41.178)"/><line class="d" y1="1158.029" x2="451.886" transform="translate(505.075 -41.178)"/><line class="d" y1="1158.029" x2="451.886" transform="translate(624.885 -41.178)"/><line class="d" y1="1158.029" x2="451.886" transform="translate(-303.645 -41.178)"/><line class="d" y1="1158.029" x2="451.886" transform="translate(564.98 -41.178)"/><line class="d" y1="1158.029" x2="451.886" transform="translate(-273.693 -41.178)"/><line class="d" y1="1158.029" x2="451.886" transform="translate(-213.788 -41.178)"/><line class="d" y1="1158.029" x2="451.886" transform="translate(-153.882 -41.178)"/><line class="d" y1="1158.029" x2="451.886" transform="translate(-93.977 -41.178)"/><line class="d" y1="1158.029" x2="451.886" transform="translate(-34.072 -41.178)"/><line class="d" y1="1158.029" x2="451.886" transform="translate(85.738 -41.178)"/><line class="d" y1="1158.029" x2="451.886" transform="translate(205.549 -41.178)"/><line class="d" y1="1158.029" x2="451.886" transform="translate(325.359 -41.178)"/><line class="d" y1="1158.029" x2="451.886" transform="translate(445.17 -41.178)"/><line class="d" y1="1158.029" x2="451.886" transform="translate(115.691 -41.178)"/><line class="d" y1="1158.029" x2="451.886" transform="translate(235.501 -41.178)"/><line class="d" y1="1158.029" x2="451.886" transform="translate(355.312 -41.178)"/><line class="d" y1="1158.029" x2="451.886" transform="translate(475.122 -41.178)"/><line class="d" y1="1158.029" x2="451.886" transform="translate(594.932 -41.178)"/><line class="d" y1="1158.029" x2="451.886" transform="translate(-4.119 -41.178)"/><line class="d" y1="1158.029" x2="451.886" transform="translate(55.786 -41.178)"/><line class="d" y1="1158.029" x2="451.886" transform="translate(175.596 -41.178)"/><line class="d" y1="1158.029" x2="451.886" transform="translate(295.407 -41.178)"/><line class="d" y1="1158.029" x2="451.886" transform="translate(415.217 -41.178)"/><line class="d" y1="1158.029" x2="451.886" transform="translate(535.027 -41.178)"/><line class="d" y1="1158.029" x2="451.886" transform="translate(654.838 -41.178)"/><line class="d" y1="1158.029" x2="451.886" transform="translate(520.051 -41.178)"/><line class="d" y1="1158.029" x2="451.886" transform="translate(639.861 -41.178)"/><line class="d" y1="1158.029" x2="451.886" transform="translate(714.743 -41.178)"/><line class="d" y1="1158.029" x2="451.886" transform="translate(834.553 -41.178)"/><line class="d" y1="1158.029" x2="451.886" transform="translate(669.814 -41.178)"/><line class="d" y1="1158.029" x2="451.886" transform="translate(729.719 -41.178)"/><line class="d" y1="1158.029" x2="451.886" transform="translate(1044.221 -41.178)"/><line class="d" y1="1158.029" x2="451.886" transform="translate(1059.198 -41.178)"/><line class="d" y1="1158.029" x2="451.886" transform="translate(1074.174 -41.178)"/><line class="d" y1="1158.029" x2="451.886" transform="translate(1089.15 -41.178)"/><line class="d" y1="1158.029" x2="451.886" transform="translate(1104.127 -41.178)"/><line class="d" y1="1158.029" x2="451.886" transform="translate(1119.103 -41.178)"/><line class="d" y1="1158.029" x2="451.886" transform="translate(1134.079 -41.178)"/><line class="d" y1="1158.029" x2="451.886" transform="translate(1149.055 -41.178)"/><line class="d" y1="1158.029" x2="451.886" transform="translate(1164.032 -41.178)"/><line class="d" y1="1158.029" x2="451.886" transform="translate(1179.008 -41.178)"/><line class="d" y1="1158.029" x2="451.886" transform="translate(1193.984 -41.178)"/><line class="d" y1="1158.029" x2="451.886" transform="translate(1208.961 -41.178)"/><line class="d" y1="1158.029" x2="451.886" transform="translate(1223.937 -41.178)"/><line class="d" y1="1158.029" x2="451.886" transform="translate(1238.913 -41.178)"/><line class="d" y1="1158.029" x2="451.886" transform="translate(1253.89 -41.178)"/><line class="d" y1="1158.029" x2="451.886" transform="translate(1268.866 -41.178)"/><line class="d" y1="1158.029" x2="451.886" transform="translate(1283.842 -41.178)"/><line class="d" y1="1158.029" x2="451.886" transform="translate(1298.818 -41.178)"/><line class="d" y1="1158.029" x2="451.886" transform="translate(1313.795 -41.178)"/><line class="d" y1="1158.029" x2="451.886" transform="translate(1343.747 -41.178)"/><line class="d" y1="1158.029" x2="451.886" transform="translate(1358.724 -41.178)"/><line class="d" y1="1158.029" x2="451.886" transform="translate(1388.676 -41.178)"/><line class="d" y1="1158.029" x2="451.886" transform="translate(1418.629 -41.178)"/><line class="d" y1="1158.029" x2="451.886" transform="translate(1463.558 -41.178)"/><line class="d" y1="1158.029" x2="451.886" transform="translate(1493.51 -41.178)"/><line class="d" y1="1158.029" x2="451.886" transform="translate(1523.463 -41.178)"/><line class="d" y1="1158.029" x2="451.886" transform="translate(1553.415 -41.178)"/><line class="d" y1="1158.029" x2="451.886" transform="translate(1583.368 -41.178)"/><line class="d" y1="1158.029" x2="451.886" transform="translate(1673.226 -41.178)"/><line class="d" y1="1158.029" x2="451.886" transform="translate(1613.321 -41.178)"/><line class="d" y1="1158.029" x2="451.886" transform="translate(1628.297 -41.178)"/><line class="d" y1="1158.029" x2="451.886" transform="translate(1688.202 -41.178)"/><line class="d" y1="1158.029" x2="451.886" transform="translate(1733.131 -41.178)"/><line class="d" y1="1158.029" x2="451.886" transform="translate(1763.084 -41.178)"/><line class="d" y1="1158.029" x2="451.886" transform="translate(1822.989 -41.178)"/><line class="d" y1="1158.029" x2="451.886" transform="translate(1793.036 -41.178)"/><line class="d" y1="1158.029" x2="451.886" transform="translate(1837.965 -41.178)"/><line class="d" y1="1158.029" x2="451.886" transform="translate(1852.941 -41.178)"/><line class="d" y1="1158.029" x2="451.886" transform="translate(1867.918 -41.178)"/><line class="d" y1="1158.029" x2="451.886" transform="translate(1882.894 -41.178)"/><line class="d" y1="1158.029" x2="451.886" transform="translate(1897.87 -41.178)"/><line class="d" y1="1158.029" x2="451.886" transform="translate(1328.771 -41.178)"/><line class="d" y1="1158.029" x2="451.886" transform="translate(1373.7 -41.178)"/><line class="d" y1="1158.029" x2="451.886" transform="translate(1403.652 -41.178)"/><line class="d" y1="1158.029" x2="451.886" transform="translate(1433.605 -41.178)"/><line class="d" y1="1158.029" x2="451.886" transform="translate(1508.487 -41.178)"/><line class="d" y1="1158.029" x2="451.886" transform="translate(1448.581 -41.178)"/><line class="d" y1="1158.029" x2="451.886" transform="translate(1478.534 -41.178)"/><line class="d" y1="1158.029" x2="451.886" transform="translate(1538.439 -41.178)"/><line class="d" y1="1158.029" x2="451.886" transform="translate(1568.392 -41.178)"/><line class="d" y1="1158.029" x2="451.886" transform="translate(1598.344 -41.178)"/><line class="d" y1="1158.029" x2="451.886" transform="translate(1658.25 -41.178)"/><line class="d" y1="1158.029" x2="451.886" transform="translate(1643.273 -41.178)"/><line class="d" y1="1158.029" x2="451.886" transform="translate(1703.178 -41.178)"/><line class="d" y1="1158.029" x2="451.886" transform="translate(1718.155 -41.178)"/><line class="d" y1="1158.029" x2="451.886" transform="translate(1748.107 -41.178)"/><line class="d" y1="1158.029" x2="451.886" transform="translate(1778.06 -41.178)"/><line class="d" y1="1158.029" x2="451.886" transform="translate(1808.012 -41.178)"/></g><g transform="translate(286 -321.752)"><path class="e" d="M134.473,1165.164c-78.143-20.3-157.736-40.817-217.764-103.724S-153.609,753.277,95.076,832.171c92.613,42.877,204.107,226.4,551.717,229.269s318.39.174,399.33-43.9,197.526-150.079,215.506-290.875S1191.822,509.48,1118.041,454.36,863.786,366.92,652.333,477.554.952,413.443.952,413.443"/></g><g class="q" transform="matrix(1, 0, 0, 1, 0, 0)"><rect class="f" width="940" height="500" rx="10" transform="translate(490 534)"/></g><rect class="g" width="135" height="11" rx="5.5" transform="translate(536 565)"/><rect class="g" width="134" height="11" rx="5.5" transform="translate(689 565)"/><rect class="g" width="134" height="11" rx="5.5" transform="translate(841 565)"/><g transform="translate(1175.912 559)"><circle class="g" cx="11.5" cy="11.5" r="11.5" transform="translate(180.088)"/><line class="h" x1="39.243" transform="translate(120.505 11.5)"/><line class="h" x1="103.126" transform="translate(0 11.184)"/></g><g transform="translate(1020.182 615)"><path class="g" d="M179.588,605.123,162.513,611.6a53.782,53.782,0,0,0,11.724,17.84l12.746-13.091A35.384,35.384,0,0,1,179.588,605.123Z" transform="translate(-158.674 -537.904)"/><path class="i" d="M172.945,547.522a35.231,35.231,0,0,1,5.369-18.784l-15.226-10.09a53.834,53.834,0,0,0-5.259,47.039l17.078-6.482A35.5,35.5,0,0,1,172.945,547.522Z" transform="translate(-154.678 -493.797)"/><path class="i" d="M227.029,467.927V486.2a35.47,35.47,0,1,1-25.008,61.534l-12.746,13.09a53.734,53.734,0,1,0,37.753-92.892Z" transform="translate(-172.325 -467.927)"/><path class="g" d="M189.258,501.253a35.882,35.882,0,0,1,3.948-4.683A35.22,35.22,0,0,1,217.318,486.2V467.927a53.673,53.673,0,0,0-43.284,23.238Z" transform="translate(-164.551 -467.927)"/></g><g transform="translate(1145.859 615)"><g transform="translate(0 0)"><path class="g" d="M556.945,609.281l7.091,15.926A53.741,53.741,0,0,0,595.4,577.592H577.952a36.372,36.372,0,0,1-21.007,31.689Z" transform="translate(-487.955 -522.607)"/><path class="i" d="M481.56,640.295l-8.784,15.064a53.822,53.822,0,0,0,46.023,2.823l-7.1-15.941a36.481,36.481,0,0,1-30.141-1.945Z" transform="translate(-445.024 -554.588)"/><path class="i" d="M522.854,482.816q.455-.011.912-.011a36.286,36.286,0,0,1,36.267,35.035H577.48a53.73,53.73,0,0,0-53.715-52.475c-.654,0-1.3.016-1.953.039Z" transform="translate(-470.036 -465.365)"/><path class="g" d="M450.5,550a36.588,36.588,0,0,1-6.3-5.048,36.292,36.292,0,0,1,22.243-61.792L465.4,465.744a53.734,53.734,0,0,0-23.687,99.318Z" transform="translate(-416.134 -465.558)"/></g></g><g transform="translate(1271.539 615)"><path class="i" d="M735.729,492.825l-6.481-17.076a53.807,53.807,0,0,0-17.841,11.724L724.5,500.219A35.388,35.388,0,0,1,735.729,492.825Z" transform="translate(-695.488 -471.91)"/><path class="g" d="M769.682,486.181a35.233,35.233,0,0,1,18.784,5.369l10.089-15.226a53.83,53.83,0,0,0-47.039-5.259L758,488.143A35.514,35.514,0,0,1,769.682,486.181Z" transform="translate(-715.946 -467.914)"/><path class="g" d="M786.375,540.266H768.107a35.469,35.469,0,1,1-61.534-25.008l-13.089-12.745a53.734,53.734,0,1,0,92.892,37.753Z" transform="translate(-678.915 -485.561)"/><path class="i" d="M830.225,502.5a35.923,35.923,0,0,1,4.683,3.948,35.222,35.222,0,0,1,10.375,24.112h18.268a53.673,53.673,0,0,0-23.238-43.284Z" transform="translate(-756.091 -477.787)"/></g><line class="j" x1="103.126" transform="translate(1020.182 765.473)"/><line class="j" x1="317.953" transform="translate(1020.182 783.726)"/><line class="j" x1="140.544" transform="translate(1020.182 801.979)"/><path class="j" d="M82.342,0H0" transform="translate(1020.182 820.23)"/><rect class="g" width="136.508" height="85.758" rx="10" transform="translate(536.895 922.5)"/><rect class="g" width="179.402" height="46.138" rx="10" transform="translate(1020.174 962.12)"/><rect class="g" width="179.402" height="46.138" rx="10" transform="translate(1020.174 902.561)"/><rect class="g" width="163.827" height="165.258" rx="10" transform="translate(1215.174 843)"/><rect class="g" width="179.402" height="46.138" rx="10" transform="translate(1020.182 843)"/><g transform="translate(536 615)"><g transform="translate(5.037 26.951)"><path class="k" d="M554.309,515.141H504.755L456.9,480.189l-47.435,37.449-49.1-17.892-46.6,70.737h-49.1l-48.228,35.68-47.019-54.509-47.851,18.308V661.4H554.622Z" transform="translate(-121.122 -478.62)"/><path class="l" d="M217.735,607.417l-48.711-54.357-47.031,17.993-.892-2.331L169.769,550.1l48.341,53.933,46.123-34.874h48.839L362.5,498.672l46.717,17.481,47.633-37.606,48.289,35.273h49.147v2.5H504.327l-47.416-34.634-47.238,37.294L363.5,501.694l-49.085,69.961H265.057L221.4,604.648Z" transform="translate(-121.101 -478.547)"/></g><line class="m" y2="210" transform="translate(5.037)"/><line class="m" y2="210" transform="translate(439.037)"/><line class="m" y2="210" transform="translate(390.037)"/><line class="m" y2="210" transform="translate(342.037)"/><line class="m" y2="210" transform="translate(53.037)"/><line class="m" y2="210" transform="translate(101.037)"/><line class="m" y2="210" transform="translate(150.037)"/><line class="m" y2="210" transform="translate(198.037)"/><line class="m" y2="210" transform="translate(246.037)"/><line class="m" y2="210" transform="translate(294.037)"/><g transform="translate(0 23.5)"><path class="i" d="M126.567,573.886a5.3,5.3,0,1,1-5.3-5.3A5.3,5.3,0,0,1,126.567,573.886Z" transform="translate(-115.971 -478.596)"/><path class="i" d="M176.668,554.716a5.3,5.3,0,1,1-5.3-5.3A5.3,5.3,0,0,1,176.668,554.716Z" transform="translate(-118.638 -477.576)"/><path class="i" d="M225.9,611.789a5.3,5.3,0,1,1-5.3-5.3A5.3,5.3,0,0,1,225.9,611.789Z" transform="translate(-119.258 -482.613)"/><path class="i" d="M276.4,574.43a5.3,5.3,0,1,1-5.3-5.3A5.3,5.3,0,0,1,276.4,574.43Z" transform="translate(-120.946 -479.625)"/><path class="i" d="M327.8,574.43a5.3,5.3,0,1,1-5.3-5.3A5.3,5.3,0,0,1,327.8,574.43Z" transform="translate(-124.682 -479.625)"/><path class="i" d="M376.6,500.367a5.3,5.3,0,1,1-5.3-5.3A5.3,5.3,0,0,1,376.6,500.367Z" transform="translate(-124.279 -474.683)"/><path class="i" d="M428.007,519.1a5.3,5.3,0,1,1-5.3-5.3A5.3,5.3,0,0,1,428.007,519.1Z" transform="translate(-129.015 -477.68)"/><path class="i" d="M477.673,479.891a5.3,5.3,0,1,1-5.3-5.3A5.3,5.3,0,0,1,477.673,479.891Z" transform="translate(-130.659 -474.593)"/><path class="i" d="M527.775,516.487a5.3,5.3,0,1,1-5.3-5.3A5.3,5.3,0,0,1,527.775,516.487Z" transform="translate(-132.325 -477.334)"/><path class="i" d="M579.66,516.7a5.3,5.3,0,1,1-5.3-5.3A5.3,5.3,0,0,1,579.66,516.7Z" transform="translate(-135.087 -477.552)"/></g></g><line class="j" x1="103.126" transform="translate(536 847.5)"/><line class="j" x1="80.5" transform="translate(536 884.5)"/><line class="j" x1="133.492" transform="translate(536 866.5)"/><line class="j" x1="115.5" transform="translate(536 903.5)"/><rect class="g" width="286" height="165.258" rx="10" transform="translate(689 843)"/><rect class="i" width="28" height="91" transform="translate(716 903)"/><rect class="i" width="28" height="67" transform="translate(798 927)"/><rect class="i" width="29" height="44" transform="translate(879 950)"/><rect class="f" width="28" height="114" transform="translate(757 880)"/><rect class="f" width="28" height="114" transform="translate(921 880)"/><rect class="f" width="28" height="84" transform="translate(838 910)"/><g transform="matrix(0.985, -0.174, 0.174, 0.985, 400.391, 783.116)"><path class="e" d="M167.6,114.252S52.468,56.8,2.324,10.6" transform="matrix(0.951, -0.309, 0.309, 0.951, 3.765, 53.478)"/></g><g transform="translate(-32 89)"><g class="p" transform="matrix(1, 0, 0, 1, 32, -89)"><line class="n" x2="40" y2="40" transform="translate(598 837)"/></g><g class="o" transform="matrix(1, 0, 0, 1, 32, -89)"><line class="n" x1="40" y2="40" transform="translate(598 837)"/></g></g></svg>