<svg xmlns="http://www.w3.org/2000/svg" width="92" height="95.858" viewBox="0 0 92 95.858"><defs><style>.a,.b,.d{fill:none;stroke-linejoin:round;stroke-width:2px;}.a,.b{stroke:#2d393b;}.a,.d{stroke-linecap:round;}.c{fill:#34aec2;}.d{stroke:#fff;}</style></defs><g transform="translate(-21.677 -13.398)"><g transform="translate(22.677 14.398)"><path class="a" d="M49.751,77.064l-27.074-.016V14.4h90V77.1l-9.583-.006" transform="translate(-22.677 -14.398)"/><line class="a" x2="90" transform="translate(0 14.201)"/><g transform="translate(7.093 7.81)"><line class="a" x2="5.556"/><line class="a" x2="5.556" transform="translate(10.186)"/><line class="a" x2="5.556" transform="translate(20.372)"/></g></g><g transform="translate(52.847 34.296)"><line class="b" x1="3.299" y1="9.028" transform="translate(31.842 45.503)"/><circle class="c" cx="23.511" cy="23.511" r="23.511"/><path class="d" d="M67.194,65.71,78.406,75.93,92.817,57.047" transform="translate(-56.495 -42.161)"/><path class="b" d="M103.445,124.6h0a4.693,4.693,0,0,1-6-2.79L93.67,111.335a4.693,4.693,0,0,1,2.789-6h0a4.693,4.693,0,0,1,6,2.789l3.775,10.478A4.693,4.693,0,0,1,103.445,124.6Z" transform="translate(-61.286 -50.941)"/></g></g></svg>