<svg xmlns="http://www.w3.org/2000/svg" width="91" height="80.426" viewBox="0 0 91 80.426"><defs><style>.a,.c{fill:none;stroke-linecap:round;stroke-linejoin:round;stroke-width:2px;}.a{stroke:#34aec2;}.b{fill:#34aec2;}.c{stroke:#2d393b;}</style></defs><g transform="translate(-12.526 -16.439)"><g transform="translate(27.932 35.368)"><path class="a" d="M34.272,43.259H42.1l6.293,25.792H72.207" transform="translate(-34.272 -43.259)"/><path class="b" d="M47.929,50.417H80.812L76.671,67.782H52.091Z" transform="translate(-38.445 -45.446)"/><circle class="b" cx="2.406" cy="2.406" r="2.406" transform="translate(16.839 25.792)"/><circle class="b" cx="2.406" cy="2.406" r="2.406" transform="translate(30.097 25.792)"/></g><g transform="translate(13.526 17.439)"><path class="c" d="M90.26,54.473V17.439H13.526V73.663H62.841" transform="translate(-13.526 -17.439)"/><line class="c" x2="76.734" transform="translate(0 12.744)"/><g transform="translate(6.365 7.008)"><line class="c" x2="4.986"/><line class="c" x2="4.986" transform="translate(9.141)"/><line class="c" x2="4.986" transform="translate(18.282)"/></g></g><path class="b" d="M127.323,101.108l-2.448-1.662a23.534,23.534,0,0,0-.262-3.5l2.187-2.011a.931.931,0,0,0,.174-1.049l-2.186-4.2a.766.766,0,0,0-.874-.437l-2.886.612a12.454,12.454,0,0,0-2.623-2.187l.087-2.973a1.054,1.054,0,0,0-.612-.875l-4.722-1.4a.83.83,0,0,0-.962.35l-1.662,2.448a23.533,23.533,0,0,0-3.5.262l-2.012-2.186a.819.819,0,0,0-.962-.175l-4.2,2.186a.767.767,0,0,0-.437.874l.612,2.886A16.35,16.35,0,0,0,97.766,90.7l-2.973-.087a.951.951,0,0,0-.874.612l-1.4,4.547a.831.831,0,0,0,.35.962L95.318,98.4a23.549,23.549,0,0,0,.262,3.5l-2.187,2.011a.93.93,0,0,0-.175,1.049l2.187,4.2a.828.828,0,0,0,.962.437l2.886-.612a16.256,16.256,0,0,0,2.623,2.273l-.087,2.973a.841.841,0,0,0,.612.787l4.548,1.4h.262a1.079,1.079,0,0,0,.7-.349l1.662-2.448a23.534,23.534,0,0,0,3.5-.262l2.012,2.186a.929.929,0,0,0,1.049.175l4.2-2.186a.767.767,0,0,0,.437-.875l-.612-2.885a12.488,12.488,0,0,0,2.186-2.623l2.973.087a1.053,1.053,0,0,0,.874-.612l1.4-4.548A.828.828,0,0,0,127.323,101.108Zm-17.228,4.46a6.559,6.559,0,1,1,6.559-6.559A6.607,6.607,0,0,1,110.1,105.568Z" transform="translate(-24.13 -19.546)"/></g></svg>