<svg xmlns="http://www.w3.org/2000/svg" width="91.035" height="83.989" viewBox="0 0 91.035 83.989"><defs><style>.a{fill:#34aec2;}.b,.c{fill:none;stroke:#2d393b;stroke-miterlimit:10;stroke-width:2px;}.b{stroke-linecap:round;}</style></defs><g transform="translate(132.959 -228.648)"><path class="a" d="M-72.1,286.524l-4.277-2.9a41.2,41.2,0,0,0-.458-6.111L-73.017,274a1.626,1.626,0,0,0,.306-1.833l-3.82-7.334a1.338,1.338,0,0,0-1.527-.763l-5.041,1.069a21.774,21.774,0,0,0-4.583-3.819l.153-5.195a1.839,1.839,0,0,0-1.069-1.527l-8.25-2.445a1.449,1.449,0,0,0-1.68.612l-2.9,4.277a41.2,41.2,0,0,0-6.111.458l-3.514-3.819a1.431,1.431,0,0,0-1.681-.306l-7.333,3.82a1.338,1.338,0,0,0-.764,1.527l1.069,5.041a28.534,28.534,0,0,0-3.972,4.583l-5.195-.153a1.66,1.66,0,0,0-1.527,1.069l-2.445,7.944a1.451,1.451,0,0,0,.612,1.681l4.277,2.9a41.114,41.114,0,0,0,.458,6.111l-3.819,3.513a1.625,1.625,0,0,0-.306,1.834l3.819,7.333a1.449,1.449,0,0,0,1.681.764l5.041-1.07a28.51,28.51,0,0,0,4.584,3.972l-.153,5.194a1.468,1.468,0,0,0,1.07,1.376l7.944,2.444h.458a1.889,1.889,0,0,0,1.222-.611l2.9-4.278A41.106,41.106,0,0,0-97,307.912l3.514,3.82a1.624,1.624,0,0,0,1.833.305l7.333-3.819a1.34,1.34,0,0,0,.764-1.528l-1.07-5.041a21.761,21.761,0,0,0,3.82-4.583l5.194.153a1.84,1.84,0,0,0,1.528-1.069l2.444-7.944A1.446,1.446,0,0,0-72.1,286.524Zm-30.1,7.791a11.541,11.541,0,0,1-11.458-11.458A11.541,11.541,0,0,1-102.2,271.4a11.542,11.542,0,0,1,11.458,11.458A11.542,11.542,0,0,1-102.2,294.316Z" transform="translate(0 -6.442)"/><path class="b" d="M-58.232,312.617a19.52,19.52,0,0,0,1.4,3.435l-1.527,2.926A1.386,1.386,0,0,0-58.1,320.5l3.816,3.817a1.393,1.393,0,0,0,1.4.127l2.8-1.527a19.5,19.5,0,0,0,3.435,1.4l.89,3.053a1.223,1.223,0,0,0,1.145.891h5.343a1.223,1.223,0,0,0,1.145-.891l.89-3.053a19.474,19.474,0,0,0,3.435-1.4l2.8,1.527a1.351,1.351,0,0,0,1.526-.254l3.817-3.816a1.354,1.354,0,0,0,.254-1.527l-1.527-2.8a13.877,13.877,0,0,0,1.4-3.435l3.053-.891a1.221,1.221,0,0,0,.89-1.145v-5.343a.99.99,0,0,0-.763-1.145l-3.053-.891a19.492,19.492,0,0,0-1.4-3.434l1.527-2.8a1.387,1.387,0,0,0-.254-1.527l-3.816-3.816a1.354,1.354,0,0,0-1.527-.254l-2.8,1.527a16.2,16.2,0,0,0-3.435-1.4L-38,288.446a1.221,1.221,0,0,0-1.145-.89h-5.343a1.221,1.221,0,0,0-1.145.89l-.891,3.053a19.458,19.458,0,0,0-3.435,1.4m8.142,22.135a7.112,7.112,0,0,1-7.124-7.124,7.221,7.221,0,0,1,7.124-7.251A7.141,7.141,0,0,1-34.7,307.91,7.112,7.112,0,0,1-41.821,315.034Z" transform="translate(-21.39 -16.627)"/><path class="c" d="M-31.933,245.479l-1.965-1.333a18.869,18.869,0,0,0-.21-2.806l1.754-1.614a.746.746,0,0,0,.14-.842l-1.754-3.368a.614.614,0,0,0-.7-.351l-2.316.491a9.974,9.974,0,0,0-2.1-1.754l.07-2.386a.845.845,0,0,0-.491-.7l-3.788-1.123a.666.666,0,0,0-.772.281l-1.333,1.964a18.887,18.887,0,0,0-2.807.21l-1.613-1.754a.659.659,0,0,0-.772-.14l-3.368,1.754a.615.615,0,0,0-.351.7l.491,2.315a13.09,13.09,0,0,0-1.824,2.1l-2.386-.071a.764.764,0,0,0-.7.491l-1.123,3.649a.666.666,0,0,0,.281.772l1.964,1.333a18.884,18.884,0,0,0,.21,2.806l-1.754,1.614a.746.746,0,0,0-.14.842l1.754,3.368a.665.665,0,0,0,.772.351l2.315-.491a13.093,13.093,0,0,0,2.1,1.824l-.07,2.386a.674.674,0,0,0,.491.632l3.648,1.123h.21a.866.866,0,0,0,.562-.281l1.333-1.964a18.965,18.965,0,0,0,2.806-.21l1.614,1.753a.745.745,0,0,0,.842.14l3.368-1.754a.613.613,0,0,0,.351-.7l-.491-2.315a10,10,0,0,0,1.754-2.1l2.386.07a.845.845,0,0,0,.7-.491l1.123-3.648A.665.665,0,0,0-31.933,245.479Zm-13.821,3.578a5.3,5.3,0,0,1-5.262-5.262,5.3,5.3,0,0,1,5.262-5.262,5.3,5.3,0,0,1,5.262,5.262A5.3,5.3,0,0,1-45.754,249.058Z" transform="translate(-20.99)"/></g></svg>