<svg xmlns="http://www.w3.org/2000/svg" width="84.378" height="117" viewBox="0 0 84.378 117"><defs><style>.a,.b{fill:none;stroke-linecap:round;stroke-linejoin:round;stroke-width:2px;}.a{stroke:#2d393b;}.b{stroke:#34aec2;}.c{fill:#34aec2;}</style></defs><g transform="translate(-107.294 -193.595)"><rect class="a" width="82.378" height="10.763" transform="translate(108.294 229.974)"/><path class="a" d="M162.01,285.453l-1.822,3.2L156.622,309.6H142.344l-3.566-20.944-27.29-47.914"/><line class="a" x1="3.994" y2="7.012" transform="translate(183.485 240.737)"/><line class="b" y1="7.703" transform="translate(149.483 194.595)"/><circle class="c" cx="6.872" cy="6.872" r="6.872" transform="translate(142.611 208.194)"/><line class="b" y1="6.812" transform="translate(169.667 203.218)"/><circle class="c" cx="3.964" cy="3.964" r="3.964" transform="translate(165.703 215.924)"/><line class="b" y1="6.812" transform="translate(129.3 203.218)"/><circle class="c" cx="3.964" cy="3.964" r="3.964" transform="translate(125.336 215.924)"/><path class="c" d="M188.719,267.564l-2.39-1.622a23.092,23.092,0,0,0-.256-3.415l2.134-1.963a.91.91,0,0,0,.171-1.025l-2.135-4.1a.747.747,0,0,0-.853-.426l-2.817.6a12.192,12.192,0,0,0-2.562-2.134l.086-2.9a1.026,1.026,0,0,0-.6-.853l-4.61-1.366a.81.81,0,0,0-.939.341l-1.622,2.391a22.959,22.959,0,0,0-3.415.256l-1.963-2.135a.8.8,0,0,0-.939-.17l-4.1,2.134a.75.75,0,0,0-.427.854l.6,2.817a15.919,15.919,0,0,0-2.22,2.561l-2.9-.085a.929.929,0,0,0-.854.6l-1.366,4.439a.81.81,0,0,0,.342.939l2.39,1.622a22.959,22.959,0,0,0,.256,3.415L155.6,270.3a.907.907,0,0,0-.171,1.024l2.134,4.1a.811.811,0,0,0,.939.427l2.818-.6a15.92,15.92,0,0,0,2.561,2.22l-.086,2.9a.821.821,0,0,0,.6.769l4.439,1.366h.256a1.054,1.054,0,0,0,.683-.342l1.622-2.39a23.09,23.09,0,0,0,3.415-.256l1.963,2.134a.91.91,0,0,0,1.025.171l4.1-2.135a.747.747,0,0,0,.426-.853l-.6-2.818a12.127,12.127,0,0,0,2.134-2.561l2.9.086a1.026,1.026,0,0,0,.853-.6l1.366-4.439A.808.808,0,0,0,188.719,267.564ZM171.9,271.918a6.4,6.4,0,1,1,6.4-6.4A6.449,6.449,0,0,1,171.9,271.918Z"/></g></svg>