<svg xmlns="http://www.w3.org/2000/svg" width="90.43" height="92" viewBox="0 0 90.43 92"><defs><style>.a,.b,.d{fill:none;stroke-linejoin:round;stroke-width:2px;}.a,.b{stroke:#fff;}.a,.d{stroke-linecap:round;}.c{fill:#fff;}.d{stroke:#007f71;}</style></defs><g transform="translate(-1043.629 -881.579)"><g transform="translate(1044.629 882.579)"><path class="a" d="M1107.923,897.072V882.579h-43l-20.293,21.48v68.52h63.295V952.147" transform="translate(-1044.629 -882.579)"/><path class="a" d="M1044.629,907.723h25.145V882.579" transform="translate(-1044.629 -882.579)"/></g><line class="a" x2="18.822" transform="translate(1057.564 918.485)"/><line class="a" x2="21.822" transform="translate(1057.564 930.325)"/><line class="a" x2="27.313" transform="translate(1057.565 942.165)"/><line class="a" x2="41.736" transform="translate(1056.65 954.006)"/><g transform="translate(1081.787 891.171)"><line class="b" x1="3.667" y1="10.036" transform="translate(35.397 50)"/><circle class="c" cx="26.136" cy="26.136" r="26.136"/><path class="d" d="M1114.448,934.886l12.464,11.361,16.02-20.991" transform="translate(-1102.554 -908.708)"/><path class="b" d="M1151.823,994.994h0a5.217,5.217,0,0,1-6.671-3.1l-4.2-11.647a5.217,5.217,0,0,1,3.1-6.671h0a5.217,5.217,0,0,1,6.671,3.1l4.2,11.648A5.217,5.217,0,0,1,1151.823,994.994Z" transform="translate(-1104.955 -913.941)"/></g></g></svg>