<svg xmlns="http://www.w3.org/2000/svg" width="92" height="80.114" viewBox="0 0 92 80.114"><defs><style>.a{fill:#fff;}.b,.c{fill:none;stroke:#fff;stroke-width:2px;}.b{stroke-linecap:round;stroke-linejoin:round;}.c{stroke-miterlimit:10;}</style></defs><g transform="translate(6978.072 -17.371)"><circle class="a" cx="5.745" cy="5.745" r="5.745" transform="translate(-6966.632 51.283)"/><circle class="a" cx="5.745" cy="5.745" r="5.745" transform="translate(-6947.481 31.377)"/><circle class="a" cx="5.745" cy="5.745" r="5.745" transform="translate(-6928.154 39.997)"/><circle class="a" cx="5.745" cy="5.745" r="5.745" transform="translate(-6909.002 17.474)"/><path class="b" d="M-6962.1,120.02V93.425h11.491V120.02" transform="translate(-4.532 -24.169)"/><path class="b" d="M-6933.909,111.56V65.478h11.49V111.56" transform="translate(-13.572 -15.71)"/><path class="b" d="M-6905.719,115.459v-37.1h11.49v37.1" transform="translate(-22.435 -19.609)"/><path class="b" d="M-6877.528,106.085v-58.7h11.49v58.7" transform="translate(-31.475 -10.234)"/><line class="c" y1="12.014" x2="11.66" transform="translate(-6957.229 41.07)"/><line class="c" x2="9.33" y2="4.526" transform="translate(-6936.737 39.521)"/><line class="c" y1="14.339" x2="12.982" transform="translate(-6919.243 27.892)"/><path class="b" d="M-6977.072,18.761V96.875h90" transform="translate(0 -0.39)"/></g></svg>