<svg xmlns="http://www.w3.org/2000/svg" width="91" height="90.341" viewBox="0 0 91 90.341"><defs><style>.a{fill:#fff;}.b,.c,.d{fill:none;stroke-linejoin:round;stroke-width:2px;}.b,.c{stroke:#007f71;}.c,.d{stroke-linecap:round;}.d{stroke:#fff;}</style></defs><g transform="translate(5962.953 -237.463)"><rect class="a" width="53.72" height="39.933" rx="1.365" transform="translate(-5962.953 287.871)"/><line class="b" x2="53.72" transform="translate(-5962.953 297.762)"/><g transform="translate(-5957.604 293.939)"><line class="c" x2="3.352"/><line class="c" x2="3.352" transform="translate(6.145)"/><line class="d" x2="3.352" transform="translate(12.289)"/></g><line class="c" x2="37.028" transform="translate(-5954.607 305.084)"/><line class="c" x2="37.028" transform="translate(-5954.607 311.874)"/><line class="c" x2="37.028" transform="translate(-5954.607 318.856)"/><g transform="translate(-5918.812 238.463)"><rect class="d" width="45.859" height="33.601"/><line class="d" x2="45.859" transform="translate(0 7.616)"/><g transform="translate(3.804 4.188)"><line class="d" x2="2.98"/><line class="d" x2="2.98" transform="translate(5.463)"/><line class="d" x2="2.98" transform="translate(10.926)"/></g><line class="d" x2="32.92" transform="translate(6.469 14.181)"/><line class="d" x2="32.92" transform="translate(6.469 20.389)"/><line class="d" x2="32.92" transform="translate(6.469 26.596)"/></g><g transform="translate(-5948.058 247.831)"><g transform="translate(15.779)"><path class="d" d="M-5923.584,250.42l7.81,3.839-3.842,7.808" transform="translate(5923.584 -250.42)"/></g><path class="d" d="M-5943.723,284.756a29.941,29.941,0,0,1,22.519-29" transform="translate(5943.723 -251.574)"/></g><g transform="translate(-5904.519 280.073)"><g transform="translate(0 21.535)"><path class="d" d="M-5879.585,331.423l-7.81-3.839,3.842-7.808" transform="translate(5887.395 -319.776)"/></g><path class="d" d="M-5863.512,292.29a29.941,29.941,0,0,1-22.518,29" transform="translate(5887.099 -292.29)"/></g></g></svg>