<svg xmlns="http://www.w3.org/2000/svg" width="92" height="94.262" viewBox="0 0 92 94.262"><defs><style>.a{fill:none;stroke:#fff;stroke-linecap:round;stroke-linejoin:round;stroke-width:2px;}.b{fill:#fff;}</style></defs><g transform="translate(4736.982 -16.992)"><g transform="translate(-4735.982 17.992)"><path class="a" d="M-4714.871,83.634h-21.111V17.992h90V83.634h-21.5" transform="translate(4735.982 -17.992)"/><line class="a" x2="90" transform="translate(0 14.879)"/><g transform="translate(7.549 8.311)"><line class="a" x2="5.913"/><line class="a" x2="5.913" transform="translate(10.84)"/><line class="a" x2="5.913" transform="translate(21.679)"/></g></g><path class="b" d="M-4682.759,86.644a17.739,17.739,0,0,0,11.7-16.742,17.635,17.635,0,0,0-17.5-17.763,17.634,17.634,0,0,0-17.5,17.763,17.739,17.739,0,0,0,11.731,16.754c-13.591,2.824-24.52,15.365-27.955,31.656l67.456-.436C-4658.38,101.774-4669.261,89.418-4682.759,86.644Z" transform="translate(-2.417 -7.058)"/></g></svg>