<svg xmlns="http://www.w3.org/2000/svg" width="91" height="81.448" viewBox="0 0 91 81.448"><defs><style>.a{fill:#fff;}.b,.c{fill:none;stroke:#fff;stroke-linecap:round;stroke-width:2px;}.b{stroke-linejoin:round;}</style></defs><g transform="translate(-9.372 -17.451)"><g transform="translate(9.372 17.451)"><path class="a" d="M20.361,24.924a11.944,11.944,0,0,1-2.882-.446,17.964,17.964,0,0,0-.434,3.609h3.316Z" transform="translate(-11.591 -19.483)"/><path class="a" d="M22.9,17.953v4.239a11.084,11.084,0,0,0,2.663-.442C24.953,19.7,23.987,18.254,22.9,17.953Z" transform="translate(-13.283 -17.596)"/><path class="a" d="M29.34,20a9.132,9.132,0,0,0-4.812-2.51,7.463,7.463,0,0,1,2.3,3.86A11.067,11.067,0,0,0,29.34,20Z" transform="translate(-13.755 -17.461)"/><path class="a" d="M17.489,34.388a11.914,11.914,0,0,1,2.872-.452v-3.2H17.045A17.894,17.894,0,0,0,17.489,34.388Z" transform="translate(-11.591 -21.294)"/><path class="a" d="M22.9,40.63c1.09-.3,2.053-1.742,2.658-3.784a11.137,11.137,0,0,0-2.658-.424Z" transform="translate(-13.283 -22.938)"/><path class="a" d="M26.211,30.739H22.9v3.2a11.928,11.928,0,0,1,2.873.452A17.908,17.908,0,0,0,26.211,30.739Z" transform="translate(-13.283 -21.294)"/><path class="a" d="M25.771,24.441a11.9,11.9,0,0,1-2.876.47v3.165h3.316A17.939,17.939,0,0,0,25.771,24.441Z" transform="translate(-13.283 -19.473)"/><path class="a" d="M20.628,40.63V36.422a11.065,11.065,0,0,0-2.658.424C18.575,38.888,19.539,40.33,20.628,40.63Z" transform="translate(-11.859 -22.938)"/><path class="a" d="M15.792,37.4a11.06,11.06,0,0,0-2.575,1.378,9.124,9.124,0,0,0,4.909,2.494A7.392,7.392,0,0,1,15.792,37.4Z" transform="translate(-10.484 -23.219)"/><path class="a" d="M28.551,30.739a18.638,18.638,0,0,1-.476,3.911,11.8,11.8,0,0,1,2.869,1.527,9.107,9.107,0,0,0,2.112-5.438Z" transform="translate(-14.781 -21.294)"/><path class="a" d="M26.83,37.392a7.459,7.459,0,0,1-2.3,3.85,9.128,9.128,0,0,0,4.817-2.515A11.028,11.028,0,0,0,26.83,37.392Z" transform="translate(-13.755 -23.218)"/><path class="a" d="M17.953,21.776a11.073,11.073,0,0,0,2.67.419V17.953C19.527,18.254,18.557,19.713,17.953,21.776Z" transform="translate(-11.854 -17.596)"/><path class="a" d="M28.077,23.436a18.583,18.583,0,0,1,.475,3.9h4.5A9.109,9.109,0,0,0,30.939,21.9,11.888,11.888,0,0,1,28.077,23.436Z" transform="translate(-14.782 -18.737)"/><path class="a" d="M15.761,21.369a7.432,7.432,0,0,1,2.347-3.918,9.119,9.119,0,0,0-4.952,2.535A11.1,11.1,0,0,0,15.761,21.369Z" transform="translate(-10.466 -17.451)"/><path class="a" d="M14.461,34.654a18.618,18.618,0,0,1-.478-3.915H9.372a9.1,9.1,0,0,0,2.157,5.489A11.87,11.87,0,0,1,14.461,34.654Z" transform="translate(-9.372 -21.294)"/><path class="a" d="M13.984,27.34a18.627,18.627,0,0,1,.466-3.868,11.929,11.929,0,0,1-2.96-1.576A9.109,9.109,0,0,0,9.372,27.34Z" transform="translate(-9.372 -18.737)"/></g><g transform="translate(34.696 60.167)"><ellipse class="b" cx="7.81" cy="1.73" rx="7.81" ry="1.73"/><path class="b" d="M45.81,81.818V95.473c.394.874,3.723,1.556,7.771,1.556,4.182,0,7.6-.728,7.8-1.643V81.818" transform="translate(-45.771 -79.737)"/><path class="b" d="M61.382,94.291c-.205.915-3.619,1.643-7.8,1.643-4.048,0-7.377-.682-7.771-1.556" transform="translate(-45.771 -83.344)"/><path class="b" d="M61.382,87.465c-.205.915-3.619,1.643-7.8,1.643-4.048,0-7.377-.682-7.771-1.556" transform="translate(-45.771 -81.37)"/></g><path class="a" d="M96.246,53.294a9.318,9.318,0,1,0-5.554,11.95A9.319,9.319,0,0,0,96.246,53.294ZM82.471,60.627a5.744,5.744,0,0,1,4.153-4.562,2.614,2.614,0,1,1,1.73,0,5.74,5.74,0,0,1,4.162,4.563Z" transform="translate(-20.956 -9.067)"/><g transform="translate(79.844 80.685)"><path class="b" d="M126.057,112.3H111.083l-.346,13.316H129.92l.346-17.214h-7.415l-4.7,3.9" transform="translate(-110.737 -108.398)"/><g transform="translate(2.176 14.301)"><line class="b" x2="2.615"/><line class="b" x2="2.615" transform="translate(4.795)"/><line class="b" x2="2.615" transform="translate(9.589)"/></g></g><circle class="b" cx="3.966" cy="3.966" r="3.966" transform="translate(14.543 43.425)"/><circle class="a" cx="3.966" cy="3.966" r="3.966" transform="translate(14.543 64.879)"/><circle class="b" cx="3.966" cy="3.966" r="3.966" transform="translate(14.543 86.037)"/><circle class="a" cx="3.966" cy="3.966" r="3.966" transform="translate(85.641 22.509)"/><circle class="b" cx="3.966" cy="3.966" r="3.966" transform="translate(85.641 43.425)"/><circle class="a" cx="3.966" cy="3.966" r="3.966" transform="translate(85.641 64.879)"/><circle class="b" cx="3.966" cy="3.966" r="3.966" transform="translate(38.516 42.752)"/><circle class="b" cx="3.966" cy="3.966" r="3.966" transform="translate(38.516 22.93)"/><circle class="b" cx="3.966" cy="3.966" r="3.966" transform="translate(62.606 22.93)"/><circle class="b" cx="3.966" cy="3.966" r="3.966" transform="translate(62.606 64.879)"/><circle class="b" cx="3.966" cy="3.966" r="3.966" transform="translate(62.606 86.037)"/><circle class="a" cx="3.966" cy="3.966" r="3.966" transform="translate(38.516 86.037)"/><path class="c" d="M0,0,11.389,9.6" transform="translate(27.631 34.356)"/><line class="b" y1="13.418" x2="16.996" transform="translate(46.319 30.038)"/><line class="b" y2="4.322" transform="translate(66.593 30.933)"/><line class="b" y2="5.993" transform="translate(42.464 50.597)"/><line class="b" x2="7.852" transform="translate(54.566 68.866)"/><line class="b" x2="9.488" y2="9.258" transform="translate(70.455 72.046)"/><line class="b" x1="10.611" y2="9.132" transform="translate(21.642 78.444)"/><line class="b" x1="7.696" transform="translate(77.957 47.372)"/></g></svg>