<?xml version="1.0" encoding="iso-8859-1"?>
<!-- Generator: Adobe Illustrator 16.0.0, SVG Export Plug-In . SVG Version: 6.00 Build 0)  -->
<!DOCTYPE svg PUBLIC "-//W3C//DTD SVG 1.0//EN" "http://www.w3.org/TR/2001/REC-SVG-20010904/DTD/svg10.dtd">
<svg version="1.0" id="Layer_1" xmlns="http://www.w3.org/2000/svg" xmlns:xlink="http://www.w3.org/1999/xlink" x="0px" y="0px"
	 width="50.686px" height="42.236px" viewBox="0 0 50.686 42.236" enable-background="new 0 0 50.686 42.236" xml:space="preserve">
<path fill="#4788C7" d="M31.679,9.502c-1.166,0-2.112-0.945-2.112-2.109V4.225h-8.448v3.168c0,1.164-0.946,2.109-2.111,2.109
	c-1.166,0-2.112-0.945-2.112-2.109V4.225C16.896,1.895,18.79,0,21.119,0h8.448c2.33,0,4.225,1.895,4.225,4.225v3.168
	C33.792,8.557,32.845,9.502,31.679,9.502"/>
<path fill="#4788C7" d="M26.843,28.256c-0.38,0.147-0.93,0.254-1.5,0.254s-1.119-0.106-1.626-0.295L0,20.316V36.43
	c0,3.21,2.598,5.807,5.809,5.807h39.069c3.21,0,5.808-2.597,5.808-5.807V20.316L26.843,28.256z"/>
<path fill="#4788C7" d="M50.686,12.143v4.837L25.85,25.258c-0.169,0.064-0.338,0.084-0.507,0.084c-0.169,0-0.338-0.02-0.507-0.084
	L0,16.979v-4.837c0-3.211,2.598-5.809,5.809-5.809h39.068C48.088,6.334,50.686,8.932,50.686,12.143"/>
</svg>
