<svg xmlns="http://www.w3.org/2000/svg" width="91.035" height="83.989" viewBox="0 0 91.035 83.989"><defs><style>.a{fill:#fff;}.b,.c{fill:none;stroke:#fff;stroke-miterlimit:10;stroke-width:2px;}.b{stroke-linecap:round;}</style></defs><g transform="translate(11733.078 -16.479)"><path class="a" d="M-11671.262,74.9l-4.344-2.948a41.761,41.761,0,0,0-.467-6.207l3.879-3.569a1.651,1.651,0,0,0,.313-1.862l-3.881-7.448a1.361,1.361,0,0,0-1.551-.776l-5.121,1.087a22.109,22.109,0,0,0-4.656-3.88l.156-5.276a1.87,1.87,0,0,0-1.088-1.552l-8.379-2.483a1.473,1.473,0,0,0-1.707.62l-2.947,4.345a41.8,41.8,0,0,0-6.209.466l-3.568-3.88a1.453,1.453,0,0,0-1.707-.31l-7.447,3.879a1.362,1.362,0,0,0-.777,1.551l1.086,5.121a28.948,28.948,0,0,0-4.033,4.655l-5.275-.156a1.687,1.687,0,0,0-1.553,1.087l-2.482,8.069a1.472,1.472,0,0,0,.621,1.707l4.344,2.949a42.019,42.019,0,0,0,.465,6.207l-3.879,3.569a1.651,1.651,0,0,0-.311,1.862l3.881,7.448a1.467,1.467,0,0,0,1.705.776l5.121-1.086a28.96,28.96,0,0,0,4.656,4.034l-.156,5.276a1.492,1.492,0,0,0,1.086,1.4l8.07,2.483h.465a1.914,1.914,0,0,0,1.242-.62l2.947-4.345a41.859,41.859,0,0,0,6.209-.466l3.568,3.879a1.653,1.653,0,0,0,1.863.311l7.447-3.88a1.361,1.361,0,0,0,.777-1.551l-1.088-5.121a22.062,22.062,0,0,0,3.879-4.656l5.277.156a1.866,1.866,0,0,0,1.551-1.087l2.484-8.069A1.471,1.471,0,0,0-11671.262,74.9Zm-30.57,7.914a11.722,11.722,0,0,1-11.637-11.638,11.722,11.722,0,0,1,11.637-11.638,11.722,11.722,0,0,1,11.639,11.638A11.722,11.722,0,0,1-11701.832,82.811Z" transform="translate(0 -7.48)"/><path class="b" d="M-11658.346,100.842a19.684,19.684,0,0,0,1.422,3.489l-1.551,2.972a1.409,1.409,0,0,0,.258,1.551l3.877,3.876a1.412,1.412,0,0,0,1.42.13l2.844-1.551a19.8,19.8,0,0,0,3.488,1.421l.9,3.1a1.243,1.243,0,0,0,1.162.9h5.428a1.241,1.241,0,0,0,1.164-.9l.9-3.1a19.8,19.8,0,0,0,3.488-1.421l2.844,1.551a1.372,1.372,0,0,0,1.549-.258l3.877-3.877a1.373,1.373,0,0,0,.26-1.55l-1.551-2.843a14.118,14.118,0,0,0,1.42-3.489l3.1-.9a1.24,1.24,0,0,0,.9-1.163V93.348a1.007,1.007,0,0,0-.775-1.163l-3.1-.9a19.855,19.855,0,0,0-1.422-3.489l1.551-2.842a1.409,1.409,0,0,0-.26-1.551l-3.875-3.877a1.375,1.375,0,0,0-1.551-.258l-2.842,1.55a16.533,16.533,0,0,0-3.49-1.421l-.9-3.1a1.241,1.241,0,0,0-1.162-.9h-5.428a1.238,1.238,0,0,0-1.162.9l-.906,3.1a19.856,19.856,0,0,0-3.488,1.421m8.27,22.483a7.224,7.224,0,0,1-7.236-7.235,7.336,7.336,0,0,1,7.236-7.366,7.253,7.253,0,0,1,7.236,7.366A7.224,7.224,0,0,1-11641.678,103.3Z" transform="translate(-21.971 -17.267)"/><path class="c" d="M-11631.613,33.56l-2-1.355a19.058,19.058,0,0,0-.214-2.85l1.782-1.639a.759.759,0,0,0,.143-.855l-1.781-3.421a.627.627,0,0,0-.713-.356l-2.353.5a10.132,10.132,0,0,0-2.138-1.782l.071-2.422a.859.859,0,0,0-.5-.713l-3.849-1.14a.677.677,0,0,0-.784.285l-1.354,2a19.179,19.179,0,0,0-2.851.214l-1.64-1.782a.667.667,0,0,0-.783-.143l-3.421,1.782a.624.624,0,0,0-.356.712l.5,2.351a13.282,13.282,0,0,0-1.853,2.138l-2.424-.071a.774.774,0,0,0-.712.5l-1.14,3.705a.676.676,0,0,0,.284.784l2,1.354a19.175,19.175,0,0,0,.215,2.85l-1.782,1.639a.759.759,0,0,0-.143.856l1.782,3.42a.674.674,0,0,0,.783.356l2.352-.5a13.309,13.309,0,0,0,2.139,1.853l-.072,2.422a.684.684,0,0,0,.5.641l3.706,1.14h.214a.88.88,0,0,0,.57-.285l1.354-2a19.188,19.188,0,0,0,2.851-.214l1.639,1.782a.759.759,0,0,0,.855.143l3.421-1.782a.625.625,0,0,0,.356-.712l-.5-2.352a10.15,10.15,0,0,0,1.782-2.138l2.424.072a.858.858,0,0,0,.712-.5l1.14-3.706A.673.673,0,0,0-11631.613,33.56Zm-14.038,3.634a5.385,5.385,0,0,1-5.346-5.345,5.385,5.385,0,0,1,5.346-5.344,5.384,5.384,0,0,1,5.345,5.344A5.384,5.384,0,0,1-11645.651,37.195Z" transform="translate(-21.587)"/></g></svg>