<svg xmlns="http://www.w3.org/2000/svg" width="92" height="83.168" viewBox="0 0 92 83.168"><defs><style>.a{fill:none;stroke:#fff;stroke-linecap:round;stroke-linejoin:round;stroke-width:2px;}.b{fill:#fff;}</style></defs><g transform="translate(4429.757 -16.5)"><g transform="translate(-4428.757 17.5)"><path class="a" d="M-4428.757,98.613V17.5h90V98.668Z" transform="translate(4428.757 -17.5)"/><line class="a" x2="90" transform="translate(0 15.167)"/><g transform="translate(7.576 8.341)"><line class="a" x2="5.934"/><line class="a" x2="5.934" transform="translate(10.879)"/><line class="a" x2="5.934" transform="translate(21.759)"/></g></g><g transform="translate(-4415.247 44.687)"><circle class="b" cx="4.633" cy="4.633" r="4.633" transform="translate(11.192)"/><line class="a" x2="11.192" transform="translate(0 4.633)"/><line class="a" x2="41.177" transform="translate(20.458 4.633)"/></g><g transform="translate(-4415.247 78.134)"><circle class="b" cx="4.633" cy="4.633" r="4.633" transform="translate(31.405)"/><line class="a" x1="20.963" y1="0.043" transform="translate(40.671 4.633)"/><line class="a" x1="31.405" y2="0.043" transform="translate(0 4.633)"/></g><g transform="translate(-4415.247 61.503)"><circle class="b" cx="4.633" cy="4.633" r="4.633" transform="translate(41.25)"/><line class="a" x1="11.119" y1="0.043" transform="translate(50.516 4.633)"/><line class="a" x1="41.25" y2="0.043" transform="translate(0 4.633)"/></g></g></svg>