<svg xmlns="http://www.w3.org/2000/svg" xmlns:xlink="http://www.w3.org/1999/xlink" width="915" height="443" viewBox="0 0 915 443"><defs><style>.a,.i,.k{fill:#fff;}.b{fill:#2d393b;font-family:Montserrat-SemiBold, Montserrat;letter-spacing:0.025em;}.b,.e{font-size:12px;}.b,.f{font-weight:600;}.c,.g,.h,.j,.m{fill:none;}.c,.g{stroke:#b2b5b6;}.c{stroke-width:2px;}.d,.e,.f{fill:#939498;}.d{font-size:14px;}.d,.e{font-family:Lato-Regular, Lato;}.f{font-size:16px;font-family:Lato-Semibold, Lato;}.g{stroke-dasharray:5 5;}.h,.i{stroke:#007f71;}.h,.i,.j,.k{stroke-width:3px;}.j,.k{stroke:#83cfcd;}.l{stroke:none;}.n{filter:url(#a);}</style><filter id="a" x="0" y="0" width="915" height="443" filterUnits="userSpaceOnUse"><feOffset dy="3" input="SourceAlpha"/><feGaussianBlur stdDeviation="3" result="b"/><feFlood flood-opacity="0.161"/><feComposite operator="in" in2="b"/><feComposite in="SourceGraphic"/></filter></defs><g transform="translate(-241 -1808)"><g class="n" transform="matrix(1, 0, 0, 1, 241, 1808)"><rect class="a" width="897" height="425" rx="10" transform="translate(9 6)"/></g><text class="b" transform="translate(277 1858)"><tspan x="0" y="0">Google Analytics vs. CRM Leads</tspan></text><line class="c" x2="897.205" transform="translate(250 1889.5)"/><text class="d" transform="translate(282.721 1916)"><tspan x="-35.448" y="14">8,000</tspan><tspan x="-35.448" y="42">7,000</tspan><tspan x="-35.448" y="70">6,000</tspan><tspan x="-35.448" y="98">5,000</tspan><tspan x="-35.448" y="126">4,000</tspan><tspan x="-35.448" y="154">3,000</tspan><tspan x="-35.448" y="182">2,000</tspan><tspan x="-35.448" y="210">1,000</tspan><tspan x="-8.12" y="238">0</tspan></text><text class="e" transform="translate(368 2161)"><tspan x="-42.852" y="12">November 2020</tspan></text><text class="e" transform="translate(512 2161)"><tspan x="-42.528" y="12">December 2020</tspan></text><text class="e" transform="translate(654 2161)"><tspan x="-35.988" y="12">January 2021</tspan></text><text class="e" transform="translate(786 2161)"><tspan x="-39.048" y="12">February 2021</tspan></text><text class="e" transform="translate(922 2161)"><tspan x="-32.196" y="12">March 2021</tspan></text><text class="e" transform="translate(1045 2161)"><tspan x="-27.96" y="12">April 2021</tspan></text><text class="f" transform="translate(653 2191)"><tspan x="-20.156" y="16">Leads</tspan></text><line class="c" x2="760.381" transform="translate(356.5 2149)"/><line class="g" x2="760.381" transform="translate(356.189 2092.5)"/><line class="g" x2="760.381" transform="translate(356.189 2008.5)"/><line class="g" x2="760.381" transform="translate(356.189 2064.5)"/><line class="g" x2="760.381" transform="translate(356.189 1980.5)"/><line class="g" x2="760.381" transform="translate(356.189 2036.5)"/><line class="g" x2="760.381" transform="translate(356.189 1952.5)"/><line class="g" x2="760.381" transform="translate(356.189 1924.5)"/><g transform="translate(376.752 1958)"><path class="h" d="M2943.5-8351.775l32.351-68.066,30.383-14.223h27.344l36.459,14.223,32.661-14.223,28.1-5.079,32.662,87.368,31.9-13.207,22.787,8.127,34.18,12.191,30.383-45.716,31.9-48.764,34.18,48.764,25.825,7.111,33.421-41.652,31.9-9.144,28.1-12.19,31.142-21.334,31.9,52.827,28.863,62.986,30.383-13.207,31.143,29.461,30.383-21.334" transform="translate(-2937.892 8476)"/><g class="i" transform="translate(0 114)"><circle class="l" cx="5.981" cy="5.981" r="5.981"/><circle class="m" cx="5.981" cy="5.981" r="4.481"/></g><g class="i" transform="translate(32.898 50)"><circle class="l" cx="5.981" cy="5.981" r="5.981"/><circle class="m" cx="5.981" cy="5.981" r="4.481"/></g><g class="i" transform="translate(61.309 34)"><circle class="l" cx="5.981" cy="5.981" r="5.981"/><circle class="m" cx="5.981" cy="5.981" r="4.481"/></g><g class="i" transform="translate(89.721 36)"><circle class="l" cx="5.981" cy="5.981" r="5.981"/><circle class="m" cx="5.981" cy="5.981" r="4.481"/></g><g class="i" transform="translate(123.366 50)"><circle class="l" cx="5.981" cy="5.981" r="5.981"/><circle class="m" cx="5.981" cy="5.981" r="4.481"/></g><g class="i" transform="translate(160.002 36)"><circle class="l" cx="5.981" cy="5.981" r="5.981"/><circle class="m" cx="5.981" cy="5.981" r="4.481"/></g><g class="i" transform="translate(186.918 29)"><circle class="l" cx="5.981" cy="5.981" r="5.981"/><circle class="m" cx="5.981" cy="5.981" r="4.481"/></g><g class="i" transform="translate(219.068 117)"><circle class="l" cx="5.981" cy="5.981" r="5.981"/><circle class="m" cx="5.981" cy="5.981" r="4.481"/></g><g class="i" transform="translate(252.713 103)"><circle class="l" cx="5.981" cy="5.981" r="5.981"/><circle class="m" cx="5.981" cy="5.981" r="4.481"/></g><g class="i" transform="translate(279.629 111)"><circle class="l" cx="5.981" cy="5.981" r="5.981"/><circle class="m" cx="5.981" cy="5.981" r="4.481"/></g><g class="i" transform="translate(308.04 122)"><circle class="l" cx="5.981" cy="5.981" r="5.981"/><circle class="m" cx="5.981" cy="5.981" r="4.481"/></g><g class="i" transform="translate(337.947 74)"><circle class="l" cx="5.981" cy="5.981" r="5.981"/><circle class="m" cx="5.981" cy="5.981" r="4.481"/></g><g class="i" transform="translate(370.845 30)"><circle class="l" cx="5.981" cy="5.981" r="5.981"/><circle class="m" cx="5.981" cy="5.981" r="4.481"/></g><g class="i" transform="translate(402.995 76)"><circle class="l" cx="5.981" cy="5.981" r="5.981"/><circle class="m" cx="5.981" cy="5.981" r="4.481"/></g><g class="i" transform="translate(431.406 84)"><circle class="l" cx="5.981" cy="5.981" r="5.981"/><circle class="m" cx="5.981" cy="5.981" r="4.481"/></g><g class="i" transform="translate(462.808 44)"><circle class="l" cx="5.981" cy="5.981" r="5.981"/><circle class="m" cx="5.981" cy="5.981" r="4.481"/></g><g class="i" transform="translate(491.967 33)"><circle class="l" cx="5.981" cy="5.981" r="5.981"/><circle class="m" cx="5.981" cy="5.981" r="4.481"/></g><g class="i" transform="translate(524.117 22)"><circle class="l" cx="5.981" cy="5.981" r="5.981"/><circle class="m" cx="5.981" cy="5.981" r="4.481"/></g><g class="i" transform="translate(556.267)"><circle class="l" cx="5.981" cy="5.981" r="5.981"/><circle class="m" cx="5.981" cy="5.981" r="4.481"/></g><g class="i" transform="translate(587.669 52)"><circle class="l" cx="5.981" cy="5.981" r="5.981"/><circle class="m" cx="5.981" cy="5.981" r="4.481"/></g><g class="i" transform="translate(616.081 117)"><circle class="l" cx="5.981" cy="5.981" r="5.981"/><circle class="m" cx="5.981" cy="5.981" r="4.481"/></g><g class="i" transform="translate(646.735 104)"><circle class="l" cx="5.981" cy="5.981" r="5.981"/><circle class="m" cx="5.981" cy="5.981" r="4.481"/></g><g class="i" transform="translate(678.137 132)"><circle class="l" cx="5.981" cy="5.981" r="5.981"/><circle class="m" cx="5.981" cy="5.981" r="4.481"/></g><g class="i" transform="translate(708.044 112)"><circle class="l" cx="5.981" cy="5.981" r="5.981"/><circle class="m" cx="5.981" cy="5.981" r="4.481"/></g></g><g transform="translate(376.752 1920)"><path class="j" d="M2943.5-8330.441l29.312-177.784,32.661,116.829,28.863-54.858L3067-8366l34.94-25.4,31.142-11.175L3159.665-8366l31.9,17.27,31.9,5.08,28.864-22.35,31.142-13.207,32.661-31.493L3345-8379.205l30.383,20.318,31.142-32.51,31.9-19.3,28.864-9.144,32.661-15.238,30.382,24.382,28.864,31.493,30.383-31.493,31.9,44.7,29.623-13.207" transform="translate(-2937.892 8514)"/><g class="k" transform="translate(0 176)"><circle class="l" cx="5.981" cy="5.981" r="5.981"/><circle class="m" cx="5.981" cy="5.981" r="4.481"/></g><g class="k" transform="translate(29.159)"><circle class="l" cx="5.981" cy="5.981" r="5.981"/><circle class="m" cx="5.981" cy="5.981" r="4.481"/></g><g class="k" transform="translate(61.309 117)"><circle class="l" cx="5.981" cy="5.981" r="5.981"/><circle class="m" cx="5.981" cy="5.981" r="4.481"/></g><g class="k" transform="translate(89.721 60)"><circle class="l" cx="5.981" cy="5.981" r="5.981"/><circle class="m" cx="5.981" cy="5.981" r="4.481"/></g><g class="k" transform="translate(123.366 140)"><circle class="l" cx="5.981" cy="5.981" r="5.981"/><circle class="m" cx="5.981" cy="5.981" r="4.481"/></g><g class="k" transform="translate(159.254 114)"><circle class="l" cx="5.981" cy="5.981" r="5.981"/><circle class="m" cx="5.981" cy="5.981" r="4.481"/></g><g class="k" transform="translate(189.161 104)"><circle class="l" cx="5.981" cy="5.981" r="5.981"/><circle class="m" cx="5.981" cy="5.981" r="4.481"/></g><g class="k" transform="translate(217.572 140)"><circle class="l" cx="5.981" cy="5.981" r="5.981"/><circle class="m" cx="5.981" cy="5.981" r="4.481"/></g><g class="k" transform="translate(248.227 158)"><circle class="l" cx="5.981" cy="5.981" r="5.981"/><circle class="m" cx="5.981" cy="5.981" r="4.481"/></g><g class="k" transform="translate(279.629 162)"><circle class="l" cx="5.981" cy="5.981" r="5.981"/><circle class="m" cx="5.981" cy="5.981" r="4.481"/></g><g class="k" transform="translate(308.788 140)"><circle class="l" cx="5.981" cy="5.981" r="5.981"/><circle class="m" cx="5.981" cy="5.981" r="4.481"/></g><g class="k" transform="translate(337.947 128)"><circle class="l" cx="5.981" cy="5.981" r="5.981"/><circle class="m" cx="5.981" cy="5.981" r="4.481"/></g><g class="k" transform="translate(372.34 98)"><circle class="l" cx="5.981" cy="5.981" r="5.981"/><circle class="m" cx="5.981" cy="5.981" r="4.481"/></g><g class="k" transform="translate(400.004 128)"><circle class="l" cx="5.981" cy="5.981" r="5.981"/><circle class="m" cx="5.981" cy="5.981" r="4.481"/></g><g class="k" transform="translate(430.658 146)"><circle class="l" cx="5.981" cy="5.981" r="5.981"/><circle class="m" cx="5.981" cy="5.981" r="4.481"/></g><g class="k" transform="translate(462.061 116)"><circle class="l" cx="5.981" cy="5.981" r="5.981"/><circle class="m" cx="5.981" cy="5.981" r="4.481"/></g><g class="k" transform="translate(492.715 96)"><circle class="l" cx="5.981" cy="5.981" r="5.981"/><circle class="m" cx="5.981" cy="5.981" r="4.481"/></g><g class="k" transform="translate(524.865 85)"><circle class="l" cx="5.981" cy="5.981" r="5.981"/><circle class="m" cx="5.981" cy="5.981" r="4.481"/></g><g class="k" transform="translate(557.015 71)"><circle class="l" cx="5.981" cy="5.981" r="5.981"/><circle class="m" cx="5.981" cy="5.981" r="4.481"/></g><g class="k" transform="translate(589.912 98)"><circle class="l" cx="5.981" cy="5.981" r="5.981"/><circle class="m" cx="5.981" cy="5.981" r="4.481"/></g><g class="k" transform="translate(616.081 128)"><circle class="l" cx="5.981" cy="5.981" r="5.981"/><circle class="m" cx="5.981" cy="5.981" r="4.481"/></g><g class="k" transform="translate(645.988 96)"><circle class="l" cx="5.981" cy="5.981" r="5.981"/><circle class="m" cx="5.981" cy="5.981" r="4.481"/></g><g class="k" transform="translate(678.137 139)"><circle class="l" cx="5.981" cy="5.981" r="5.981"/><circle class="m" cx="5.981" cy="5.981" r="4.481"/></g><g class="k" transform="translate(709.54 127)"><circle class="l" cx="5.981" cy="5.981" r="5.981"/><circle class="m" cx="5.981" cy="5.981" r="4.481"/></g></g></g></svg>