<svg xmlns="http://www.w3.org/2000/svg" width="298.813" height="32.998" viewBox="0 0 298.813 32.998"><defs><style>.a{fill:#2d393b;}.b{fill:#ffb500;}</style></defs><g transform="translate(20918 6661)"><path class="a" d="M64.964,147.459a5.533,5.533,0,0,0-2.658.694v-5.708a.73.73,0,0,0-.785-.785H59.1a.73.73,0,0,0-.785.785v19.573a.73.73,0,0,0,.785.785H61.52a.73.73,0,0,0,.785-.785v-7.944a2.658,2.658,0,1,1,5.316,0v7.944a.715.715,0,0,0,.785.785h2.386a.73.73,0,0,0,.785-.785v-7.944A6.613,6.613,0,0,0,64.964,147.459Z" transform="translate(-20951.961 -6799.104)"/><path class="a" d="M101.966,155.784a7.62,7.62,0,0,0-7.762,7.641,7.935,7.935,0,0,0,8.034,7.944,9.472,9.472,0,0,0,5.829-2.054.7.7,0,0,0,.121-1.118l-1.329-1.57a.748.748,0,0,0-1.088-.181,6.156,6.156,0,0,1-3.473,1.208,4.259,4.259,0,0,1-4.048-2.839h10.6c.514,0,.815-.272.785-.786C109.336,158.955,106.165,155.784,101.966,155.784Zm-3.685,6.01a3.666,3.666,0,0,1,7.1,0Z" transform="translate(-20973.113 -6807.429)"/><path class="a" d="M142.549,155.784a7.62,7.62,0,0,0-7.762,7.641,7.935,7.935,0,0,0,8.035,7.944,9.47,9.47,0,0,0,5.829-2.054.7.7,0,0,0,.121-1.118l-1.329-1.57a.748.748,0,0,0-1.087-.181,6.159,6.159,0,0,1-3.474,1.208,4.259,4.259,0,0,1-4.047-2.839h10.6c.513,0,.815-.272.785-.786C149.919,158.955,146.748,155.784,142.549,155.784Zm-3.685,6.01a3.666,3.666,0,0,1,7.1,0Z" transform="translate(-20997.033 -6807.429)"/><path class="a" d="M1.914,0h.07A1.912,1.912,0,0,1,3.9,1.912V19.231a1.912,1.912,0,0,1-1.912,1.912H1.912A1.912,1.912,0,0,1,0,19.231V1.914A1.914,1.914,0,0,1,1.914,0Z" transform="translate(-20844.602 -6657.444)"/><path class="a" d="M201.044,147.459a5.537,5.537,0,0,0-2.658.694v-5.708a.73.73,0,0,0-.785-.785h-2.416a.73.73,0,0,0-.785.785v19.573a.73.73,0,0,0,.785.785H197.6a.73.73,0,0,0,.785-.785v-7.944a2.658,2.658,0,1,1,5.316,0v7.944a.716.716,0,0,0,.786.785h2.386a.73.73,0,0,0,.785-.785v-7.944A6.613,6.613,0,0,0,201.044,147.459Z" transform="translate(-21032.17 -6799.104)"/><path class="a" d="M238.04,155.784a7.793,7.793,0,1,0,7.793,7.792A7.811,7.811,0,0,0,238.04,155.784Zm0,11.628a3.821,3.821,0,1,1,0-7.641,3.821,3.821,0,0,1,0,7.641Z" transform="translate(-21053.299 -6807.429)"/><path class="a" d="M284.838,156.371h-2.356a.73.73,0,0,0-.785.786v8a2.613,2.613,0,1,1-5.225,0v-8a.73.73,0,0,0-.785-.786h-2.356a.73.73,0,0,0-.785.786v8a6.555,6.555,0,0,0,13.109,0v-8A.739.739,0,0,0,284.838,156.371Z" transform="translate(-21078.229 -6807.775)"/><path class="a" d="M314.981,161.553c-1.48-.574-2.3-.846-2.3-1.541,0-.6.6-1,1.42-1a5.183,5.183,0,0,1,2.023.6.727.727,0,0,0,1.088-.3l.845-1.45a.721.721,0,0,0-.3-1.087,8.122,8.122,0,0,0-3.805-1c-2.9,0-5.135,1.721-5.135,4.379,0,2.9,2.657,3.987,3.926,4.5,1.843.755,2.6,1.177,2.6,1.9,0,.574-.483,1.148-1.51,1.148a7.65,7.65,0,0,1-2.93-.815.733.733,0,0,0-1.057.362L309,169.013a.728.728,0,0,0,.3,1.057,9.435,9.435,0,0,0,4.561,1.3c3.382,0,5.527-2.266,5.527-4.833C319.391,164,317.337,162.4,314.981,161.553Z" transform="translate(-21099.609 -6807.429)"/><path class="a" d="M352.409,164.029c-.3-5.074-3.473-8.245-7.672-8.245a7.62,7.62,0,0,0-7.762,7.641,7.935,7.935,0,0,0,8.034,7.944,9.472,9.472,0,0,0,5.829-2.054.7.7,0,0,0,.121-1.118l-1.329-1.57a.748.748,0,0,0-1.087-.181,6.158,6.158,0,0,1-3.473,1.208,4.259,4.259,0,0,1-4.048-2.839h10.6C352.137,164.815,352.439,164.543,352.409,164.029Zm-11.357-2.235a3.666,3.666,0,0,1,7.1,0Z" transform="translate(-21116.205 -6807.429)"/><path class="a" d="M21.318,156.371H18.542a.613.613,0,0,0-.57.388l-3.18,8.028-2.958-7.468a.614.614,0,0,0-.57-.387H9.668a.614.614,0,0,0-.57.387L6.14,164.786l-3.18-8.028a.613.613,0,0,0-.57-.388H-.386a.613.613,0,0,0-.57.839l5.487,13.851a.613.613,0,0,0,.57.387H6.69a.614.614,0,0,0,.57-.387l3.206-8.092,3.206,8.092a.614.614,0,0,0,.57.387h1.589a.613.613,0,0,0,.57-.387l5.487-13.851A.613.613,0,0,0,21.318,156.371Z" transform="translate(-20917 -6807.775)"/><path class="b" d="M389.731,133h-2.776a.613.613,0,0,0-.57.387l-12.359,31.771a.613.613,0,0,0,.57.839h2.776a.613.613,0,0,0,.57-.388L390.3,133.839A.613.613,0,0,0,389.731,133Z" transform="translate(-21138.016 -6794)"/><path class="a" d="M426.308,157.49a5.984,5.984,0,0,0-5.749,3.249V157.6h-1.333v14.5h1.389v-7.721c0-3.444,2.083-5.638,5.5-5.638,2.944,0,4.694,1.722,4.694,5v8.36H432.2v-8.471C432.2,159.573,429.836,157.49,426.308,157.49Z" transform="translate(-21164.682 -6808.435)"/><path class="a" d="M467.768,157.49a8.842,8.842,0,0,0-5.8,2.055l.695,1a7.524,7.524,0,0,1,5-1.833c2.833,0,4.305,1.444,4.305,4.138v1.167H466.99c-4.027,0-5.415,1.861-5.415,4.055,0,2.472,1.972,4.138,5.222,4.138a5.568,5.568,0,0,0,5.221-2.694V172.1h1.333v-9.193C473.351,159.323,471.351,157.49,467.768,157.49Zm4.194,10.331a4.97,4.97,0,0,1-4.972,3.249c-2.555,0-4.027-1.166-4.027-3.055,0-1.667,1.055-2.916,4.055-2.916h4.944Z" transform="translate(-21189.643 -6808.435)"/><path class="a" d="M503.8,170.73l-5.777-12.97h-1.472l6.527,14.5h1.417l6.554-14.5h-1.416Z" transform="translate(-21210.258 -6808.593)"/><rect class="a" width="1.389" height="14.498" transform="translate(-20696.182 -6650.833)"/><path class="a" d="M539.292,143.69a1.144,1.144,0,0,0-1.139,1.139,1.139,1.139,0,1,0,1.139-1.139Z" transform="translate(-21234.779 -6800.301)"/><path class="a" d="M566.338,160.878a6.649,6.649,0,0,0-6.082-3.388,7.043,7.043,0,1,0,0,14.081,6.692,6.692,0,0,0,6.027-3.3v2.444c0,3.86-1.805,5.638-5.665,5.638a8.592,8.592,0,0,1-5.861-2.11l-.75,1.055a9.577,9.577,0,0,0,6.638,2.305c4.666,0,7.026-2.194,7.026-7.054V157.6h-1.333Zm-5.971,9.443a5.793,5.793,0,1,1,5.944-5.8A5.645,5.645,0,0,1,560.367,170.321Z" transform="translate(-21243.551 -6808.435)"/><path class="a" d="M606.04,157.49a8.841,8.841,0,0,0-5.8,2.055l.694,1a7.525,7.525,0,0,1,5-1.833c2.833,0,4.3,1.444,4.3,4.138v1.167h-4.971c-4.027,0-5.416,1.861-5.416,4.055,0,2.472,1.972,4.138,5.222,4.138a5.57,5.57,0,0,0,5.221-2.694V172.1h1.333v-9.193C611.623,159.323,609.623,157.49,606.04,157.49Zm4.194,10.331a4.969,4.969,0,0,1-4.971,3.249c-2.555,0-4.027-1.166-4.027-3.055,0-1.667,1.055-2.916,4.055-2.916h4.944Z" transform="translate(-21271.141 -6808.435)"/><path class="a" d="M643.4,166.63c-1.778,0-2.694-1.027-2.694-2.889V154.41h4.611v-1.194H640.7v-3.166h-1.389v3.166h-2.666v1.194h2.666v9.471a3.6,3.6,0,0,0,3.944,3.944,4.4,4.4,0,0,0,2.971-1.028l-.583-.972A3.331,3.331,0,0,1,643.4,166.63Z" transform="translate(-21292.832 -6804.049)"/><path class="a" d="M671.5,157.49a7.361,7.361,0,1,0,7.249,7.36A7.061,7.061,0,0,0,671.5,157.49Zm0,13.47a6.117,6.117,0,1,1,5.832-6.11A5.751,5.751,0,0,1,671.5,170.96Z" transform="translate(-21309.1 -6808.435)"/><path class="a" d="M711.379,160.767V157.6h-1.333v14.5h1.388v-7.554c0-3.583,1.917-5.722,5.139-5.722.111,0,.222.028.333.028V157.49C714.184,157.49,712.268,158.656,711.379,160.767Z" transform="translate(-21336.094 -6808.435)"/></g></svg>