<svg xmlns="http://www.w3.org/2000/svg" xmlns:xlink="http://www.w3.org/1999/xlink" width="1920" height="600" viewBox="0 0 1920 600"><defs><style>.a{fill:#007f71;}.b{clip-path:url(#a);}.c{opacity:0.274;}.d{fill:#fff;}.e,.g{fill:none;}.e{stroke:#fff;stroke-width:4px;stroke-dasharray:12;}.f{stroke:none;}</style><clipPath id="a"><rect class="a" width="1920" height="600" transform="translate(0 2879)"/></clipPath></defs><g class="b" transform="translate(0 -2879)"><g class="c" transform="translate(843.008 2875.19) rotate(-21)"><g transform="translate(214.805 187.473)"><g transform="translate(3.836 3.837)"><g transform="translate(51.21 51.218)"><path class="d" d="M735.135,1189.184c-266.26,0-482.108-215.843-482.109-482.1s215.843-482.108,482.1-482.109,482.108,215.844,482.109,482.1a482.106,482.106,0,0,1-482.1,482.108Zm0-952.688c-259.895,0-470.579,210.69-470.578,470.585s210.689,470.579,470.583,470.576,470.579-210.689,470.577-470.583A470.58,470.58,0,0,0,735.135,236.5Z" transform="translate(-253.026 -224.971)"/></g><g transform="translate(528.388)"><rect class="d" width="9.863" height="56.981"/></g><g transform="translate(528.388 1009.67)"><rect class="d" width="9.863" height="56.981"/></g><g transform="translate(440.816 29.502)"><rect class="d" width="7.684" height="34.574" transform="translate(0 1.334) rotate(-10.001)"/></g><g transform="translate(612.254 1001.766)"><rect class="d" width="7.684" height="34.574" transform="matrix(0.985, -0.174, 0.174, 0.985, 0, 1.334)"/></g><g transform="translate(354.966 51.907)"><rect class="d" width="7.686" height="34.582" transform="translate(0 2.628) rotate(-19.993)"/></g><g transform="translate(692.629 979.631)"><rect class="d" width="7.686" height="34.582" transform="translate(0 2.628) rotate(-19.993)"/></g><g transform="translate(274.536 88.94)"><rect class="d" width="7.682" height="34.574" transform="matrix(0.866, -0.5, 0.5, 0.866, 0, 3.841)"/></g><g transform="translate(768.167 943.933)"><rect class="d" width="7.682" height="34.572" transform="translate(0 3.841) rotate(-30.001)"/></g><g transform="translate(201.968 139.47)"><rect class="d" width="7.684" height="34.575" transform="matrix(0.766, -0.643, 0.643, 0.766, 0, 4.939)"/></g><g transform="translate(836.565 895.758)"><rect class="d" width="7.684" height="34.577" transform="matrix(0.766, -0.643, 0.643, 0.766, 0, 4.941)"/></g><g transform="translate(139.467 201.973)"><rect class="d" width="7.684" height="34.579" transform="matrix(0.643, -0.766, 0.766, 0.643, 0, 5.886)"/></g><g transform="translate(895.752 836.571)"><rect class="d" width="7.684" height="34.574" transform="translate(0 5.886) rotate(-50)"/></g><g transform="translate(88.934 274.54)"><rect class="d" width="7.682" height="34.574" transform="translate(0 6.653) rotate(-59.999)"/></g><g transform="translate(943.93 768.171)"><rect class="d" width="7.682" height="34.572" transform="translate(0 6.653) rotate(-59.999)"/></g><g transform="translate(51.904 354.97)"><rect class="d" width="7.684" height="34.583" transform="translate(0 7.221) rotate(-70.007)"/></g><g transform="translate(979.628 692.631)"><rect class="d" width="7.686" height="34.582" transform="translate(0 7.223) rotate(-70.007)"/></g><g transform="translate(29.503 440.823)"><rect class="d" width="7.684" height="34.576" transform="translate(0 7.568) rotate(-80.038)"/></g><g transform="translate(1001.766 612.255)"><rect class="d" width="7.685" height="34.582" transform="translate(0 7.568) rotate(-79.982)"/></g><g transform="translate(0 528.392)"><rect class="d" width="56.982" height="9.863"/></g><g transform="translate(1009.67 528.393)"><rect class="d" width="56.981" height="9.863"/></g><g transform="translate(29.503 612.252)"><rect class="d" width="34.575" height="7.684" transform="matrix(0.985, -0.174, 0.174, 0.985, 0, 6.009)"/></g><g transform="translate(1001.766 440.82)"><rect class="d" width="34.574" height="7.684" transform="translate(0 6.001) rotate(-9.996)"/></g><g transform="translate(51.907 692.632)"><rect class="d" width="34.585" height="7.686" transform="translate(0 11.825) rotate(-19.993)"/></g><g transform="translate(979.627 354.969)"><rect class="d" width="34.582" height="7.686" transform="translate(0 11.824) rotate(-19.993)"/></g><g transform="translate(88.939 768.166)"><rect class="d" width="34.574" height="7.682" transform="matrix(0.866, -0.5, 0.5, 0.866, 0, 17.288)"/></g><g transform="translate(943.93 274.536)"><rect class="d" width="34.572" height="7.682" transform="matrix(0.866, -0.5, 0.5, 0.866, 0, 17.287)"/></g><g transform="translate(139.472 836.565)"><rect class="d" width="34.574" height="7.684" transform="translate(0 22.223) rotate(-39.998)"/></g><g transform="translate(895.757 201.964)"><rect class="d" width="34.574" height="7.684" transform="translate(0 22.223) rotate(-39.999)"/></g><g transform="translate(201.971 895.749)"><rect class="d" width="34.577" height="7.684" transform="translate(0 26.487) rotate(-50)"/></g><g transform="translate(836.57 139.464)"><rect class="d" width="34.572" height="7.684" transform="translate(0 26.484) rotate(-50.001)"/></g><g transform="translate(274.539 943.923)"><rect class="d" width="34.575" height="7.682" transform="translate(0 29.942) rotate(-59.998)"/></g><g transform="translate(768.17 88.932)"><rect class="d" width="34.568" height="7.682" transform="translate(0 29.936) rotate(-59.998)"/></g><g transform="translate(354.97 979.609)"><rect class="d" width="34.585" height="7.686" transform="translate(0 32.501) rotate(-70.007)"/></g><g transform="translate(692.632 51.89)"><rect class="d" width="34.578" height="7.686" transform="translate(0 32.494) rotate(-70.007)"/></g><g transform="translate(440.823 1001.756)"><rect class="d" width="34.577" height="7.684" transform="translate(0 34.052) rotate(-80.004)"/></g><g transform="translate(612.255 29.495)"><rect class="d" width="34.574" height="7.684" transform="translate(0 34.049) rotate(-80.004)"/></g></g><path class="d" d="M751.966,1261.073c-296.668,0-537.163-240.5-537.161-537.167S455.3,186.743,751.972,186.744s537.163,240.5,537.161,537.169a537.164,537.164,0,0,1-537.167,537.16Zm0-1066.649c-292.428,0-529.486,237.057-529.486,529.485s237.059,529.485,529.486,529.485,529.485-237.059,529.485-529.485A529.486,529.486,0,0,0,751.966,194.422Z" transform="translate(-214.805 -186.744)"/></g><g transform="translate(321.638 300.322)"><g class="e" transform="translate(243.86 0) rotate(22)"><circle class="f" cx="325.488" cy="325.488" r="325.488"/><circle class="g" cx="325.488" cy="325.488" r="323.488"/></g></g><g transform="translate(574.191 540.37)"><path class="d" d="M642.112,787.314a177.77,177.77,0,1,1,177.77-177.771A177.768,177.768,0,0,1,642.112,787.314Zm0-352.083A174.315,174.315,0,1,0,816.426,609.546v0A174.512,174.512,0,0,0,642.112,435.23Z" transform="translate(-464.342 -431.775)"/></g><g transform="translate(542.394 508.573)"><path class="d" d="M651.831,828.829c-115.555,0-209.567-94.011-209.567-209.567S536.275,409.7,651.831,409.7,861.4,503.708,861.4,619.262,767.386,828.829,651.831,828.829Zm0-402.9c-106.607,0-193.338,86.729-193.338,193.337S545.222,812.6,651.831,812.6s193.338-86.731,193.338-193.338S758.438,425.925,651.831,425.925Z" transform="translate(-442.264 -409.697)"/></g><g transform="translate(513.025 185.088) rotate(21)"><g transform="translate(197.369 200.414)"><g transform="translate(0 0)"><path class="d" d="M0,0,430.072,430.064,257.51,172.557Z"/><path class="d" d="M172.562,257.508l257.51,172.556L0,0Z"/></g><g transform="translate(0 0)"><path class="d" d="M172.562,172.557,0,430.064,430.072,0Z"/><path class="d" d="M430.072,0,0,430.064,257.51,257.508Z"/></g></g><g transform="translate(0 0)"><g transform="translate(0 363.026)"><g transform="translate(384.896 33.22)"><path class="d" d="M0,23.244A23.528,23.528,0,1,1,23.527,47.056,23.816,23.816,0,0,1,0,23.244Z" transform="translate(0 0)"/></g><g transform="translate(0 0.011)"><path class="d" d="M413.23,23.825A23.823,23.823,0,0,1,389.4,0H0L399.075,48.079a49.35,49.35,0,0,0,59.286-36.825A49.345,49.345,0,0,0,459.658,0h-22.6a23.825,23.825,0,0,1-23.823,23.825Z" transform="translate(0.003 49.37)"/><path class="d" d="M410.287,0a49.472,49.472,0,0,0-11.2,1.3L0,49.376H389.407a23.825,23.825,0,0,1,47.651,0h22.6A49.374,49.374,0,0,0,410.293,0Z" transform="translate(0 0)"/></g><g transform="translate(365.89 0)"><path class="d" d="M49.373,49.375a49.409,49.409,0,0,0,11.2-1.3L459.661,0H70.254A23.827,23.827,0,0,1,46.422,23.821,23.825,23.825,0,0,1,22.6,0H0A49.371,49.371,0,0,0,49.369,49.375Z" transform="translate(0 49.38)"/><path class="d" d="M46.428,25.556A23.827,23.827,0,0,1,70.254,49.383h389.4L60.584,1.306A49.353,49.353,0,0,0,0,49.381H22.6A23.825,23.825,0,0,1,46.428,25.556Z" transform="translate(0 0)"/></g></g><g transform="translate(362.632 0)"><g transform="translate(0.404 366.815)"><g transform="translate(49.373 0)"><path class="d" d="M23.825,46.424A23.825,23.825,0,0,1,0,70.248v389.4L48.079,60.578A49.359,49.359,0,0,0,11.231,1.293,49.391,49.391,0,0,0,0,0V22.6A23.828,23.828,0,0,1,23.825,46.424Z" transform="translate(0 0)"/></g><g transform="translate(0 0)"><path class="d" d="M0,49.368A49.421,49.421,0,0,0,1.3,60.574L49.375,459.655V70.248a23.827,23.827,0,0,1,0-47.652V0h0A49.373,49.373,0,0,0,0,49.368Z"/></g></g><g transform="translate(0 0)"><g transform="translate(0 0)"><path class="d" d="M25.338,414.32a23.763,23.763,0,0,1,23.63-23.892V0L1.285,400.125A50.071,50.071,0,0,0,0,411.359a49.236,49.236,0,0,0,48.967,49.5V438.207A23.763,23.763,0,0,1,25.338,414.32Z"/></g><g transform="translate(48.968 0)"><path class="d" d="M48.967,411.366a50.165,50.165,0,0,0-1.283-11.234L0,0V390.43a23.892,23.892,0,0,1,23.627,24.151A23.889,23.889,0,0,1,0,438.207v22.66H0a49.234,49.234,0,0,0,48.967-49.5Z" transform="translate(0 0)"/></g></g><g transform="translate(22.128 385.464)"><g transform="translate(0 0)"><path class="d" d="M55.3,27.652A27.652,27.652,0,1,1,27.652,0,27.653,27.653,0,0,1,55.3,27.652Z"/></g><g transform="translate(1.555 1.557)"><path class="d" d="M52.188,26.1A26.094,26.094,0,1,1,26.094,0,26.094,26.094,0,0,1,52.188,26.1Z" transform="translate(0 0)"/></g><g transform="translate(12.899 12.903)"><path class="d" d="M29.5,14.749A14.749,14.749,0,1,1,14.749,0h0A14.751,14.751,0,0,1,29.5,14.749Z" transform="translate(0 0)"/></g><g transform="translate(14.828 14.834)"><path class="d" d="M25.636,12.818A12.818,12.818,0,1,1,12.818,0,12.818,12.818,0,0,1,25.636,12.818Z" transform="translate(0 0)"/></g><g transform="translate(16.871 16.875)"><path class="d" d="M21.557,10.777A10.779,10.779,0,1,1,10.776,0h0A10.779,10.779,0,0,1,21.557,10.776Z" transform="translate(0 0)"/></g><g transform="translate(20.078 20.082)"><path class="d" d="M15.142,7.57A7.571,7.571,0,1,1,7.57,0h0a7.572,7.572,0,0,1,7.571,7.568Z" transform="translate(0 0)"/></g></g></g></g></g></g></g></svg>