<?xml version="1.0" encoding="iso-8859-1"?>
<!-- Generator: Adobe Illustrator 16.0.0, SVG Export Plug-In . SVG Version: 6.00 Build 0)  -->
<!DOCTYPE svg PUBLIC "-//W3C//DTD SVG 1.0//EN" "http://www.w3.org/TR/2001/REC-SVG-20010904/DTD/svg10.dtd">
<svg version="1.0" id="Layer_1" xmlns="http://www.w3.org/2000/svg" xmlns:xlink="http://www.w3.org/1999/xlink" x="0px" y="0px"
	 width="47.542px" height="56.053px" viewBox="0 0 47.542 56.053" enable-background="new 0 0 47.542 56.053" xml:space="preserve">
<path fill="#4788C7" d="M0,4.422h8.435v-4.41h4.057v4.362h4.432V0.015h4.069v4.347h4.427V0h4.054v4.401h9.068v0.841
	c0,3.269-0.011,6.539,0.011,9.809c0.003,0.494-0.15,0.834-0.497,1.181c-6.226,6.225-12.435,12.465-18.662,18.687
	c-0.387,0.387-0.558,0.767-0.553,1.317c0.027,2.74,0.013,5.482,0.013,8.224v0.916h0.879c2.615,0,5.231-0.014,7.847,0.01
	c0.52,0.005,0.885-0.144,1.25-0.515c2.988-3.025,5.994-6.03,8.996-9.04c0.19-0.191,0.39-0.373,0.664-0.636v20.858H0V4.422z
	 M20.97,15.674H7.432v3.95H20.97V15.674z M7.427,27.709h8.549v-3.955H7.427V27.709z"/>
<path fill="#4788C7" d="M41.579,26.313c-0.027,0.03-0.143,0.162-0.266,0.285c-4.754,4.773-9.506,9.547-14.275,14.303
	c-0.232,0.23-0.639,0.385-0.973,0.399c-1.024,0.052-2.053,0.02-3.18,0.02c0-1.349-0.014-2.647,0.015-3.943
	c0.004-0.19,0.183-0.407,0.333-0.558c4.769-4.793,9.544-9.579,14.321-14.365c0.051-0.053,0.115-0.094,0.103-0.082
	C38.953,23.674,40.238,24.966,41.579,26.313"/>
<path fill="#4788C7" d="M43.803,16.364c1.236,1.229,2.52,2.5,3.738,3.712c-0.973,0.966-1.998,1.981-2.945,2.922
	c-1.169-1.17-2.471-2.474-3.72-3.722C41.788,18.37,42.817,17.346,43.803,16.364"/>
</svg>
